<?xml version="1.0" encoding="UTF-8"?><svg id="Layer_2" xmlns="http://www.w3.org/2000/svg" viewBox="0 0 479 103.35"><defs><style>.cls-1{fill:#fff;}</style></defs><g id="Layer_1-2"><g><g><g><path d="M20.08,100.58l.97-23.02,1.34-60.05c.03-2.29,.05-4.52,.05-6.72l-.05-5.74,9.51,.07,9.97-.07c3.16,0,5.54,.21,7.15,.63s3.08,1.17,4.41,2.24c1.33,1.07,2.52,2.52,3.56,4.34s1.83,3.99,2.37,6.51c.54,2.52,.8,5.16,.8,7.91,0,2.29-.18,4.49-.53,6.61-.35,2.12-.91,4.14-1.68,6.05-.77,1.91-1.66,3.6-2.69,5.07-1.03,1.47-2.02,2.62-2.99,3.46s-2.23,1.75-3.79,2.73c1.56,.75,2.81,1.42,3.75,2.03,.93,.61,1.88,1.38,2.83,2.31,.95,.93,1.8,2.03,2.55,3.29,.75,1.26,1.39,2.67,1.91,4.23,.52,1.56,.93,3.34,1.24,5.32,.31,1.98,.46,4.05,.46,6.19,0,4.34-.57,8.29-1.72,11.86s-2.87,6.57-5.15,8.99c-2.28,2.43-4.72,3.99-7.31,4.69-2.59,.7-5.45,1.05-8.57,1.05l-11.12-.07-7.26,.07Zm4.11-4.41h13.34c4.2,0,7.25-.37,9.15-1.12,1.9-.75,3.71-1.97,5.43-3.67,1.72-1.7,3.09-4.2,4.12-7.49,1.03-3.29,1.54-6.75,1.54-10.39s-.48-6.61-1.43-9.34c-.95-2.73-2.27-4.97-3.96-6.72-1.69-1.75-3.5-2.88-5.43-3.39-1.93-.51-4.22-.77-6.86-.77h-14.95l-.97,42.9Zm1.12-47.31h9.06c4.75,0,7.93-.19,9.52-.56,2.05-.51,4.02-1.49,5.89-2.95,1.26-1.03,2.42-2.5,3.5-4.42,1.07-1.91,1.92-4.17,2.53-6.77,.61-2.59,.92-5.29,.92-8.1s-.3-5.1-.9-7.18-1.47-3.87-2.62-5.36-2.48-2.57-4-3.23c-1.52-.65-3.88-.98-7.1-.98h-15.86l-.93,39.54Z"/><path d="M111.8,100.58c-.61-.05-1.18-.07-1.7-.07s-1.09,.02-1.7,.07l.37-15.19c-.71,2.38-1.28,4.09-1.72,5.14s-1.02,2.16-1.72,3.32c-.71,1.17-1.59,2.27-2.64,3.32s-2.31,1.95-3.75,2.69-2.92,1.28-4.44,1.61c-1.52,.33-3.04,.49-4.58,.49-2.64,0-5.1-.44-7.38-1.33-2.28-.89-4.31-2.43-6.07-4.62-1.76-2.19-2.97-4.75-3.61-7.66-.64-2.92-.97-6.22-.97-9.9,0-2.85,.21-9.88,.62-21.1,.41-11.22,.62-20.38,.62-27.47,.8,.05,1.4,.07,1.8,.07s1-.02,1.8-.07c-.25,4.01-.61,12.34-1.08,24.98-.48,12.64-.71,20.55-.71,23.72,0,3.55,.31,6.56,.92,9.03,.61,2.47,1.68,4.51,3.2,6.12,1.52,1.61,3.24,2.74,5.15,3.39,1.92,.65,3.89,.98,5.91,.98s4.15-.41,6.09-1.22c1.95-.82,3.56-1.83,4.85-3.04,1.29-1.21,2.42-2.71,3.4-4.48,1.13-2.05,2.1-4.43,2.9-7.14,.71-2.38,1.23-5.33,1.56-8.85,.34-3.52,.63-9.9,.86-19.14,.21-8.86,.32-16.98,.35-24.35,.83,.05,1.44,.07,1.84,.07s1-.02,1.79-.07l-1.7,48.99-.18,10.57c-.06,4.34-.09,8.05-.09,11.13Z"/><path d="M125.73,100.58c.34-7,.75-19.2,1.2-36.6,.45-17.4,.68-28.76,.68-34.08,.79,.05,1.39,.07,1.82,.07,.45,0,1.08-.02,1.86-.07-.43,8.86-.85,20.95-1.26,36.25-.41,15.3-.62,26.78-.62,34.43-.8-.05-1.41-.07-1.84-.07s-1.04,.02-1.84,.07Zm1.7-88.6l.14-6.93c.77,.05,1.55,.07,2.34,.07s1.58-.02,2.34-.07l-.14,6.93c-.77-.09-1.55-.14-2.34-.14s-1.58,.05-2.34,.14Z"/><path d="M140.17,99.19c-.06-2.24-.18-4.22-.37-5.95,2.42,1.63,4.7,2.78,6.85,3.43,2.14,.65,4.11,.98,5.88,.98,2.36,0,4.37-.51,6.04-1.54,1.67-1.03,2.93-2.54,3.79-4.54,.86-2,1.29-4.1,1.29-6.29,0-.98-.07-1.92-.21-2.83s-.36-1.82-.67-2.73c-.31-.91-.65-1.75-1.03-2.52-.38-.77-.92-1.64-1.61-2.62-.69-.98-1.49-2.07-2.41-3.29s-2.36-3.05-4.32-5.52c-1.96-2.47-3.58-4.6-4.85-6.4-1.27-1.79-2.33-3.61-3.17-5.45-.84-1.84-1.44-3.53-1.79-5.07-.35-1.54-.53-3.1-.53-4.69,0-2.7,.56-5.32,1.68-7.86,1.12-2.54,2.73-4.49,4.83-5.84,2.1-1.35,4.76-2.03,7.98-2.03,2.7,0,5.73,.54,9.1,1.61,.03,2.05,.12,4.04,.28,5.95-1.96-1.26-3.72-2.11-5.26-2.55-1.55-.44-3.12-.66-4.71-.66-1.99,0-3.83,.45-5.52,1.36-1.69,.91-2.95,2.24-3.79,3.99-.84,1.75-1.26,3.65-1.26,5.7,0,1.12,.09,2.17,.28,3.15,.18,.98,.48,1.97,.87,2.97,.4,1,.91,2.03,1.54,3.08,.63,1.05,1.44,2.26,2.44,3.63,1,1.38,2.44,3.26,4.32,5.66,1.88,2.4,3.29,4.22,4.21,5.45s1.71,2.36,2.37,3.39c.66,1.03,1.29,2.15,1.88,3.39s1.08,2.44,1.45,3.6c.37,1.17,.64,2.34,.83,3.53s.28,2.39,.28,3.6c0,2.94-.57,5.71-1.7,8.32-1.13,2.61-2.78,4.66-4.94,6.15-2.16,1.49-4.76,2.24-7.79,2.24-1.13,0-2.55-.14-4.25-.42-1.7-.28-3.06-.57-4.09-.87-1.03-.3-2.32-.8-3.88-1.5Z"/><path d="M177.04,100.58l1.56-42.76,.41-20.09c.06-3.59,.09-6.2,.09-7.84,.8,.05,1.39,.07,1.79,.07,.37,0,.95-.02,1.75-.07l-.62,15.96c.67-2.19,1.23-3.86,1.68-5,.45-1.14,1.05-2.37,1.82-3.67,.77-1.31,1.68-2.53,2.74-3.67,1.06-1.14,2.33-2.1,3.82-2.87,1.49-.77,3.01-1.33,4.58-1.68,1.56-.35,3.11-.52,4.65-.52,2.58,0,5.07,.44,7.5,1.33,2.42,.89,4.43,2.41,6.03,4.58,1.59,2.17,2.69,4.67,3.29,7.49,.6,2.82,.9,5.84,.9,9.06,0,1.45-.05,3.59-.14,6.44l-.96,31.84-.18,11.41c-.61-.05-1.21-.07-1.8-.07s-1.17,.02-1.75,.07c.3-5.83,.55-11.41,.73-16.73l.64-17.92c.24-6.62,.36-11.41,.36-14.35s-.29-5.83-.87-8.26c-.58-2.43-1.58-4.44-3.01-6.05s-3.12-2.78-5.08-3.5c-1.96-.72-3.98-1.08-6.06-1.08-2.91,0-5.48,.61-7.72,1.82-2.11,1.17-3.97,2.88-5.56,5.14-1.59,2.26-2.89,5.12-3.9,8.57-.77,2.52-1.35,6.04-1.75,10.57-.36,3.92-.66,10.32-.89,19.21s-.34,16.41-.34,22.57c-.8-.05-1.41-.07-1.84-.07s-1.04,.02-1.84,.07Z"/><path d="M266,93.66c-.25,1.75-.43,3.52-.55,5.32-2.54,1.12-4.83,1.9-6.85,2.34-2.02,.44-4.09,.66-6.21,.66-3.68,0-6.93-.76-9.77-2.27-2.83-1.51-5.26-4.03-7.29-7.55s-3.46-7.47-4.32-11.85c-.86-4.38-1.29-9.04-1.29-13.98,0-6.48,.74-12.55,2.21-18.21,1.47-5.66,3.89-10.36,7.26-14.09,3.37-3.73,7.55-5.59,12.55-5.59,3.43,0,6.54,.97,9.33,2.9,2.79,1.94,4.96,5.1,6.5,9.48,1.55,4.39,2.32,9.59,2.32,15.61,0,1.12-.03,2.19-.09,3.22l-36.41,.07c-.15,3.03-.23,5.31-.23,6.85,0,4.42,.43,8.71,1.29,12.85,.86,4.14,2.16,7.61,3.89,10.41,1.73,2.79,3.81,4.87,6.24,6.22,2.42,1.35,4.99,2.03,7.69,2.03,4.11,0,8.68-1.47,13.72-4.41Zm-32.18-37.79l32.73,.07c-.03-3.22-.15-5.69-.37-7.42-.22-1.73-.61-3.5-1.2-5.32-.58-1.82-1.28-3.39-2.1-4.72s-1.76-2.45-2.85-3.36-2.31-1.6-3.66-2.06c-1.35-.47-2.76-.7-4.24-.7-1.63,0-3.22,.28-4.79,.84-1.56,.56-2.99,1.33-4.28,2.31-1.29,.98-2.49,2.23-3.61,3.74-1.12,1.52-2.04,3.16-2.76,4.93-.72,1.77-1.27,3.46-1.66,5.07-.38,1.61-.79,3.81-1.22,6.61Z"/><path d="M275.94,99.19c-.06-2.24-.18-4.22-.37-5.95,2.42,1.63,4.7,2.78,6.85,3.43,2.14,.65,4.11,.98,5.88,.98,2.36,0,4.37-.51,6.04-1.54,1.67-1.03,2.93-2.54,3.79-4.54,.86-2,1.29-4.1,1.29-6.29,0-.98-.07-1.92-.21-2.83s-.36-1.82-.67-2.73c-.31-.91-.65-1.75-1.03-2.52-.38-.77-.92-1.64-1.61-2.62-.69-.98-1.49-2.07-2.41-3.29s-2.36-3.05-4.32-5.52c-1.96-2.47-3.58-4.6-4.85-6.4-1.27-1.79-2.33-3.61-3.17-5.45-.84-1.84-1.44-3.53-1.79-5.07-.35-1.54-.53-3.1-.53-4.69,0-2.7,.56-5.32,1.68-7.86,1.12-2.54,2.73-4.49,4.83-5.84,2.1-1.35,4.76-2.03,7.98-2.03,2.7,0,5.73,.54,9.1,1.61,.03,2.05,.12,4.04,.28,5.95-1.96-1.26-3.72-2.11-5.26-2.55-1.55-.44-3.12-.66-4.71-.66-1.99,0-3.83,.45-5.52,1.36-1.69,.91-2.95,2.24-3.79,3.99-.84,1.75-1.26,3.65-1.26,5.7,0,1.12,.09,2.17,.28,3.15,.18,.98,.48,1.97,.87,2.97,.4,1,.91,2.03,1.54,3.08,.63,1.05,1.44,2.26,2.44,3.63,1,1.38,2.44,3.26,4.32,5.66,1.88,2.4,3.29,4.22,4.21,5.45s1.71,2.36,2.37,3.39c.66,1.03,1.29,2.15,1.88,3.39s1.08,2.44,1.45,3.6c.37,1.17,.64,2.34,.83,3.53s.28,2.39,.28,3.6c0,2.94-.57,5.71-1.7,8.32-1.13,2.61-2.78,4.66-4.94,6.15-2.16,1.49-4.76,2.24-7.79,2.24-1.13,0-2.55-.14-4.25-.42-1.7-.28-3.06-.57-4.09-.87-1.03-.3-2.32-.8-3.88-1.5Z"/><path d="M310.05,99.19c-.06-2.24-.18-4.22-.37-5.95,2.42,1.63,4.7,2.78,6.85,3.43,2.15,.65,4.11,.98,5.88,.98,2.36,0,4.37-.51,6.04-1.54,1.67-1.03,2.93-2.54,3.79-4.54s1.29-4.1,1.29-6.29c0-.98-.07-1.92-.21-2.83s-.36-1.82-.67-2.73c-.31-.91-.65-1.75-1.03-2.52-.38-.77-.92-1.64-1.61-2.62-.69-.98-1.49-2.07-2.41-3.29s-2.36-3.05-4.32-5.52c-1.96-2.47-3.58-4.6-4.85-6.4-1.27-1.79-2.33-3.61-3.17-5.45s-1.44-3.53-1.79-5.07c-.35-1.54-.53-3.1-.53-4.69,0-2.7,.56-5.32,1.68-7.86,1.12-2.54,2.73-4.49,4.83-5.84,2.1-1.35,4.76-2.03,7.98-2.03,2.7,0,5.73,.54,9.1,1.61,.03,2.05,.12,4.04,.28,5.95-1.96-1.26-3.72-2.11-5.26-2.55-1.55-.44-3.12-.66-4.71-.66-1.99,0-3.83,.45-5.52,1.36-1.69,.91-2.95,2.24-3.79,3.99-.84,1.75-1.26,3.65-1.26,5.7,0,1.12,.09,2.17,.28,3.15,.18,.98,.48,1.97,.87,2.97,.4,1,.91,2.03,1.54,3.08s1.44,2.26,2.44,3.63c1,1.38,2.44,3.26,4.32,5.66,1.88,2.4,3.29,4.22,4.21,5.45,.92,1.24,1.71,2.36,2.37,3.39,.66,1.03,1.29,2.15,1.88,3.39s1.08,2.44,1.45,3.6c.37,1.17,.64,2.34,.83,3.53s.28,2.39,.28,3.6c0,2.94-.57,5.71-1.7,8.32-1.13,2.61-2.78,4.66-4.94,6.15-2.16,1.49-4.76,2.24-7.79,2.24-1.13,0-2.55-.14-4.25-.42-1.7-.28-3.06-.57-4.09-.87s-2.32-.8-3.88-1.5Z"/></g><g><path d="M345.97,6.31c3.95-1,9.13-1.86,15.72-1.86,8.1,0,14.03,2.87,17.79,8.03,3.48,4.59,5.56,11.61,5.56,20.21s-1.7,15.62-4.9,20.64c-4.33,7.02-11.39,10.61-19.4,10.61-2.45,0-4.71-.14-6.59-.86v38.7h-8.19V6.31Zm8.19,46.58c1.79,.72,4.05,1,6.78,1,9.89,0,15.91-7.31,15.91-20.64s-5.93-18.92-14.97-18.92c-3.58,0-6.31,.43-7.72,1V52.89Z"/><path d="M418.84,101.77l-.66-8.74h-.28c-2.54,5.45-7.44,10.32-13.93,10.32-9.23,0-13.94-9.89-13.94-19.92,0-16.77,9.79-25.94,27.4-25.8v-1.43c0-5.73-1.04-16.05-10.36-16.05-4.24,0-8.66,2.01-11.86,5.16l-1.88-8.31c3.77-3.73,9.23-6.16,14.97-6.16,13.94,0,17.32,14.48,17.32,28.38v25.94c0,6.02,.19,11.9,.75,16.63h-7.53Zm-1.22-35.4c-9.04-.29-19.3,2.15-19.3,15.62,0,8.17,3.58,12.04,7.81,12.04,5.93,0,9.7-5.73,11.01-11.61,.28-1.29,.47-2.72,.47-4.01v-12.04Z"/><path d="M478.62,0V83.85c0,6.16,.09,13.19,.38,17.92h-7.44l-.38-12.04h-.19c-2.54,7.74-8.1,13.62-15.54,13.62-11.02,0-19.49-14.19-19.49-35.26-.09-23.08,9.32-37.27,20.43-37.27,6.97,0,11.68,5.02,13.75,10.61h.19V0h8.29Zm-8.29,60.63c0-1.58-.09-3.73-.38-5.3-1.22-8.03-5.74-14.62-11.96-14.62-8.57,0-13.65,11.47-13.65,26.8,0,14.05,4.52,25.66,13.46,25.66,5.55,0,10.64-5.59,12.15-15.05,.28-1.72,.38-3.44,.38-5.45v-12.04Z"/></g></g><g><path d="M2.2,22.26c.07,8.64,.14,17.17,.21,25.7,0,.91,.17,1.94-.04,2.71-.23,.85-.8,1.49-1.22,2.21-.35-.75-1-1.51-1-2.26C.03,40.67-.04,30.71,.02,20.75c0-.82,.91-1.88,1.55-2.3,.61-.4,1.43-.09,3.02-.1-.21-2.47-.53-4.88-.58-7.29-.09-4.49,.71-5.64,3.59-5.61,1.74,.02,3.47,.07,5.21,.14,2.73,.12,3.58,1.42,3.6,5.62,.12,22.87-.03,45.74,.49,68.6,.2,8.87-2.96,14.98-5.2,21.98-.51,1.61-1.59,1.3-2.06-.14-2.22-6.85-5.54-12.8-5.41-21.33,.27-18.37-.07-36.78-.18-55.18,0-1.45,.42-3.62-1.83-2.88Zm4.56,.3c.08,16.63,.15,33.44,.23,50.25,2.3,.02,4.74,.05,7.01,.07-.09-16.64-.19-33.45-.28-50.05-2.25-.09-4.68-.18-6.96-.27Zm-.32-4.7c2.66,.08,5.08,.16,7,.22,.1-2.73,.21-5.69,.31-8.15-2.47-.16-4.89-.31-7.27-.46-.01,2.88-.03,5.78-.04,8.39Zm.38,59.02c0,2.8,0,5.3,.01,7.42,2.53,.09,5,.19,7.13,.26,.12-2.4,.25-4.96,.36-7.23-2.63-.16-5.01-.31-7.5-.46Zm.72,11.82c1.09,3.06,1.99,5.57,3.08,8.63,1.13-3.21,2-5.68,2.92-8.31-2.1-.11-3.87-.21-6-.32Z"/><path class="cls-1" d="M6.76,22.56c2.27,.09,4.71,.18,6.96,.27,.09,16.6,.19,33.41,.28,50.05-2.27-.02-4.71-.05-7.01-.07-.08-16.81-.15-33.62-.23-50.25Z"/><path class="cls-1" d="M6.45,17.86c.01-2.61,.03-5.51,.04-8.39,2.38,.15,4.8,.31,7.27,.46-.09,2.46-.2,5.42-.31,8.15-1.92-.06-4.34-.14-7-.22Z"/><path class="cls-1" d="M6.83,76.88c2.49,.15,4.87,.3,7.5,.46-.11,2.26-.24,4.83-.36,7.23-2.12-.08-4.6-.17-7.13-.26,0-2.12,0-4.62-.01-7.42Z"/><path class="cls-1" d="M7.56,88.69c2.14,.12,3.9,.21,6,.32-.92,2.63-1.79,5.09-2.92,8.31-1.09-3.06-1.99-5.57-3.08-8.63Z"/></g></g></g></svg>