<?xml version="1.0" encoding="UTF-8"?><svg xmlns="http://www.w3.org/2000/svg" xmlns:xlink="http://www.w3.org/1999/xlink" viewBox="0 0 374.37 343.26"><defs><style>.cls-1{fill:#076d6d;}.cls-1,.cls-2{opacity:.5;}.cls-3{fill:#81c5e8;}.cls-4{fill:#b2cfd1;}.cls-5,.cls-6,.cls-7,.cls-8{fill:#fff;}.cls-9{fill:#394356;}.cls-10{fill:#dbdbdb;}.cls-11{fill:#6a7384;}.cls-6{opacity:.4;}.cls-12{fill:url(#linear-gradient);}.cls-12,.cls-7{opacity:.1;}.cls-13{isolation:isolate;}.cls-14{fill:#e0f9fe;}.cls-15{fill:#edf4f4;}.cls-16{fill:#c5eaef;}.cls-17{fill:#c3d600;}.cls-18{fill:#ffdc79;}.cls-19{fill:#485366;}.cls-2{fill:#2d605d;mix-blend-mode:hard-light;}.cls-20{fill:#48d7e5;}.cls-21{fill:#fe5c99;}.cls-22{fill:#e5e5e5;}.cls-23{fill:#d1e4e5;}.cls-8{opacity:.2;}.cls-24{fill:#ffe6a6;}.cls-25{fill:#e83d83;}.cls-26{fill:#00e0c1;}.cls-27{fill:#ebf6f7;}.cls-28{fill:#02f5d0;}.cls-29{fill:#b7e3e5;}.cls-30{fill:#666490;}.cls-31{fill:#011a5f;}.cls-32{fill:#252343;}.cls-33{fill:#c9d4fe;opacity:.3;}.cls-34{fill:#ededed;}</style><linearGradient id="linear-gradient" x1="237.01" y1="154.87" x2="279.19" y2="160.8" gradientUnits="userSpaceOnUse"><stop offset="0" stop-color="#076d6d"/><stop offset="1" stop-color="#076d6d" stop-opacity="0"/></linearGradient></defs><g class="cls-13"><g id="Layer_2"><g id="OBJECTS"><g><path class="cls-1" d="M374.14,187.24c.3-.18,.3-.61,0-.79l-31.64-19.46s-.03-.03-.07-.05c-.02-.02-.03-.03-.07-.05l-.19-.12c-.05-.03-.1-.05-.16-.09-.31-.14-.64-.23-.97-.26-.62-.07-1.28,.07-1.89,.36l-4.79-2.99c2.55-2.07,4.08-4.6,4.17-7.4l.12-3.98c.21-7.34-9.77-13.61-22.31-13.98-12.45-.36-22.72,5.21-23.07,12.5l-.02-.03v.21l-.12,3.94v.02l-.02,.62,.02-.02c.35,7.08,10.12,13,22.31,13.37,5.23,.16,10.07-.76,13.96-2.4,.07,.09,.16,.19,.24,.26,.1,.07,.21,.14,.31,.19l6.35,3.96c-.05,.71,.02,1.39,.24,1.98,.23,.57,.57,1.08,1.04,1.42,.16,.14,.33,.24,.54,.35l27.06,16.64c.54,.33,1.2,.34,1.74,.02,1.75-1.03,5.65-3.32,7.2-4.24Z"/><path class="cls-10" d="M339.09,141.74l-5.37-5.58-15.48-3.83-15.68,2.91-5.69,5.25-1.48,3.27,2.24,.79s2.65-10.65,20.54-10.13c17.89,.53,19.91,11.32,19.91,11.32l2.29-.65-1.28-3.36Z"/><path class="cls-34" d="M340.38,146.39c-.83-2-2.39-3.84-4.5-5.43,1.05,1.47,1.6,3.09,1.55,4.76-.19,6.44-9.25,11.4-20.24,11.08-10.99-.32-19.74-5.81-19.55-12.25,.05-1.68,.7-3.25,1.83-4.66-2.39,1.58-4.14,3.51-5.04,5.65l-.54-1.27-.13,4.32s0,0,0,.01c0,0,0,0,0,0l-.02,.66,.03-.03c.35,7.38,10.53,13.56,23.23,13.93,13.06,.38,23.83-5.51,24.06-13.17l.12-4.14-.81,.55Z"/><path class="cls-3" d="M317.94,131.27c-13.06-.38-23.83,5.51-24.06,13.18-.02,.7,.05,1.4,.2,2.08,1.51,6.73,11.18,12.14,23.04,12.48,11.86,.35,21.83-4.48,23.74-11.11,.19-.67,.3-1.36,.32-2.06,.23-7.66-10.18-14.18-23.24-14.57Zm-.75,25.54c-10.99-.32-19.74-5.81-19.55-12.25,.05-1.68,.7-3.25,1.83-4.66,3.21-4,10.28-6.66,18.41-6.42,8.13,.24,15.03,3.3,18,7.49,1.05,1.47,1.6,3.09,1.55,4.76-.19,6.44-9.25,11.4-20.24,11.08Z"/><path class="cls-5" d="M317.94,131.27c-13.06-.38-23.83,5.51-24.06,13.18-.02,.7,.05,1.4,.2,2.08,1.51,6.73,11.18,12.14,23.04,12.48,11.86,.35,21.83-4.48,23.74-11.11,.19-.67,.3-1.36,.32-2.06,.23-7.66-10.18-14.18-23.24-14.57Zm-.75,25.54c-10.99-.32-19.74-5.81-19.55-12.25,.05-1.68,.7-3.25,1.83-4.66,3.21-4,10.28-6.66,18.41-6.42,8.13,.24,15.03,3.3,18,7.49,1.05,1.47,1.6,3.09,1.55,4.76-.19,6.44-9.25,11.4-20.24,11.08Z"/><path class="cls-34" d="M344.02,162.24l-.45,.67s0,0,0,0l-2.03,3-.52,.77-8.89-5.54h0c-.12-.06-.23-.12-.32-.2-.28-.21-.49-.51-.62-.85-.06-.17-.11-.36-.14-.55h0c-.08-.55,.01-1.17,.29-1.76,.35-.72,.91-1.25,1.52-1.5,.33-.14,.67-.19,1.01-.16,.2,.02,.39,.07,.58,.16,.03,.01,.07,.03,.09,.05l.12,.08s.03,.02,.04,.03l9.31,5.81Z"/><path class="cls-5" d="M344.02,162.24l-.45,.67s0,0,0,0l-10.7-6.64c.33-.14,.67-.19,1.01-.16,.2,.02,.39,.07,.58,.16,.03,.01,.07,.03,.09,.05l.12,.08s.03,.02,.04,.03l9.31,5.81Z"/><path class="cls-10" d="M341.54,165.91l-.52,.77-8.89-5.54h0c-.12-.06-.23-.12-.32-.2-.28-.21-.49-.51-.62-.85-.06-.17-.11-.36-.14-.55l10.48,6.37Z"/><path class="cls-9" d="M372.31,177.76l-1.29,2.27-3.32,5.85-27.05-16.72s0,0,0,0h0c-.21-.1-.39-.21-.56-.35-.48-.37-.85-.88-1.07-1.48-.44-1.16-.39-2.64,.27-4.02,.25-.52,.56-.98,.91-1.37,0,0,0,0,0,0,.98-1.08,2.28-1.65,3.49-1.52,.35,.03,.69,.12,1,.28,.06,.02,.11,.05,.17,.08l.21,.13s.05,.03,.07,.05c.02,.01,.04,.03,.06,.04l27.12,16.76Z"/><path class="cls-19" d="M372.31,177.76l-1.29,2.27-3.25-.98-27.58-17.11s0,0,0,0c0,0,0,0,0,0,.98-1.08,2.28-1.65,3.49-1.52,.35,.03,.69,.12,1,.28,.06,.02,.11,.05,.17,.08l.21,.13s.05,.03,.07,.05c.02,.01,.04,.03,.06,.04l27.12,16.76Z"/><path class="cls-11" d="M373.68,183.62c-1.12,2.34-3.54,3.51-5.41,2.62h0c-.21-.1-.39-.21-.56-.35-.48-.37-.85-.89-1.07-1.48-.45-1.16-.39-2.64,.27-4.02,.93-1.94,2.75-3.08,4.41-2.9,.35,.03,.68,.12,1,.28,.06,.02,.11,.06,.17,.09l.21,.13s.05,.03,.07,.05c1.51,1.07,1.94,3.45,.92,5.59Z"/><path class="cls-8" d="M336.79,145.79c-.18,6.08-8.91,10.76-19.5,10.45-10.59-.31-19.03-5.5-18.85-11.58,.18-6.08,8.91-10.76,19.5-10.45,10.59,.31,19.03,5.5,18.85,11.58Z"/><path class="cls-8" d="M328.42,136.33c-19.1,.42-24.62,9.83-26.22,15.15-2.43-1.93-3.84-4.29-3.77-6.82,.18-6.08,8.91-10.76,19.5-10.45,3.89,.12,7.49,.89,10.48,2.12Z"/><path class="cls-6" d="M335.79,145.77c-.17,5.77-8.44,10.2-18.48,9.91-10.04-.29-18.03-5.21-17.86-10.98,0-.17,.01-.33,.04-.5,.56,5.41,8.26,9.88,17.83,10.16,9.74,.29,17.81-3.88,18.44-9.38,.04,.26,.04,.53,.04,.79Z"/></g><g><path class="cls-1" d="M340.12,255.55l-25.16-15.88,19.29-11.88c2.05-1.26,2.05-4.24,0-5.5l-99.11-60.99c-1.87-1.15-4.23-1.15-6.1,0l-124.51,76.67c-2.02,1.25-2.02,4.19,0,5.43l99.15,61.01c1.88,1.16,4.25,1.15,6.13,0l20.82-12.82,24.12,15.79,85.37-51.83Z"/><path class="cls-20" d="M239,34.72l-3.97-2.52h-.02c-.86-.58-2.03-.71-3.06-.09L107.9,108.5c-2.26,1.39-3.63,3.85-3.63,6.5v107.95c0,1.09,.55,1.96,1.34,2.49v.02s.22,.15,.22,.15c0,0,0,0,0,0l4.33,2.74s.62-3.66,.47-3.74c-.01,0-.06-.03-.12-.05l123.19-75.86c1.58-.97,2.54-2.69,2.54-4.54V35.33l2.76-.61Z"/><path class="cls-14" d="M113.15,228.23l124.8-76.84c1.58-.97,2.54-2.69,2.54-4.54V37.19c0-2.2-2.41-3.55-4.29-2.39L112.14,111.19c-2.26,1.39-3.63,3.85-3.63,6.5v107.95c0,2.38,2.61,3.84,4.64,2.59Z"/><path class="cls-31" d="M115.85,221.94l119.48-73.57c1.51-.93,2.43-2.57,2.43-4.35V45.18c0-2.11-2.31-3.4-4.1-2.29L114.88,116.02c-2.16,1.33-3.48,3.69-3.48,6.22v97.22c0,2.28,2.5,3.68,4.45,2.48Z"/><path class="cls-20" d="M335.74,215.95h.02v-5.78h-7.06l-85.17-52.31c-1.87-1.15-4.23-1.15-6.1,0l-116.78,71.91-9.25,1.32v5.94h.02c-.07,1.13,.42,2.27,1.5,2.93l90.76,55.74c1.88,1.16,4.25,1.15,6.13,0l124.44-76.62c1.15-.71,1.63-1.95,1.49-3.13Z"/><path class="cls-14" d="M209.81,289.54l124.44-76.62c2.05-1.26,2.05-4.24,0-5.5l-90.72-55.72c-1.87-1.15-4.23-1.15-6.1,0l-124.51,76.67c-2.02,1.25-2.02,4.19,0,5.43l90.76,55.74c1.88,1.16,4.25,1.15,6.13,0Z"/><path class="cls-16" d="M186.08,262.7l104.49-64.35c1.83-1.12,1.82-3.78,0-4.9l-51.96-32.48c-1.67-1.02-3.76-1.02-5.43,0l-104.55,64.39c-1.8,1.11-1.8,3.73,0,4.84l52,32.5c1.67,1.03,3.79,1.03,5.46,0Z"/><path class="cls-34" d="M247.14,262.83l43.53-26.8c.72-.44,.72-1.48,0-1.93l-25.21-15.77c-.65-.4-1.48-.4-2.13,0l-43.56,26.82c-.71,.44-.71,1.47,0,1.9l25.22,15.78c.66,.4,1.49,.4,2.15,0Z"/><g><path class="cls-20" d="M137.97,222c-.2-.12-.45-.12-.64,0l-5.43,3.34-.61-.2v.77h0c0,.11,.05,.22,.16,.28l6.16,3.85c.2,.12,.45,.12,.65,0l5.87-3.61c.11-.07,.16-.17,.16-.28h0s0-.76,0-.76l-6.31-3.39Z"/><path class="cls-20" d="M146.68,216.63c-.2-.12-.45-.12-.64,0l-5.43,3.34-.61-.2v.77h0c0,.11,.05,.22,.16,.28l6.16,3.85c.2,.12,.45,.12,.65,0l5.87-3.61c.11-.07,.16-.17,.16-.28h0s0-.76,0-.76l-6.31-3.39Z"/><path class="cls-20" d="M155.38,211.26c-.2-.12-.45-.12-.64,0l-5.43,3.34-.61-.2v.77h0c0,.11,.05,.22,.16,.28l6.16,3.85c.2,.12,.45,.12,.65,0l5.87-3.61c.11-.07,.16-.17,.16-.28h0s0-.76,0-.76l-6.31-3.39Z"/><path class="cls-20" d="M164.09,205.89c-.2-.12-.45-.12-.64,0l-5.43,3.34-.61-.2v.77h0c0,.11,.05,.22,.16,.28l6.16,3.85c.2,.12,.45,.12,.65,0l5.87-3.61c.11-.07,.16-.17,.16-.28h0s0-.76,0-.76l-6.31-3.39Z"/><path class="cls-20" d="M172.79,200.53c-.2-.12-.45-.12-.64,0l-5.43,3.34-.61-.2v.77h0c0,.11,.05,.22,.16,.28l6.16,3.85c.2,.12,.45,.12,.65,0l5.87-3.61c.11-.07,.16-.17,.16-.28h0s0-.76,0-.76l-6.31-3.39Z"/><path class="cls-20" d="M181.5,195.16c-.2-.12-.45-.12-.64,0l-5.43,3.34-.61-.2v.77h0c0,.11,.05,.22,.16,.28l6.16,3.85c.2,.12,.45,.12,.65,0l5.87-3.61c.11-.07,.16-.17,.16-.28h0s0-.76,0-.76l-6.31-3.39Z"/><path class="cls-20" d="M190.2,189.79c-.2-.12-.45-.12-.64,0l-5.43,3.34-.61-.2v.77h0c0,.11,.05,.22,.16,.28l6.16,3.85c.2,.12,.45,.12,.65,0l5.87-3.61c.11-.07,.16-.17,.16-.28h0s0-.76,0-.76l-6.31-3.39Z"/><path class="cls-20" d="M190.48,197.07l5.87-3.61c.22-.13,.22-.45,0-.58l-6.15-3.85c-.2-.12-.45-.12-.64,0l-5.88,3.61c-.21,.13-.21,.44,0,.57l6.16,3.85c.2,.12,.45,.12,.65,0Z"/><path class="cls-20" d="M198.91,184.42c-.2-.12-.45-.12-.64,0l-5.43,3.34-.61-.2v.77h0c0,.11,.05,.22,.16,.28l6.16,3.85c.2,.12,.45,.12,.65,0l5.87-3.61c.11-.07,.16-.17,.16-.28h0s0-.76,0-.76l-6.31-3.39Z"/><path class="cls-20" d="M207.61,179.06c-.2-.12-.45-.12-.64,0l-5.43,3.34-.61-.2v.77h0c0,.11,.05,.22,.16,.28l6.16,3.85c.2,.12,.45,.12,.65,0l5.87-3.61c.11-.07,.16-.17,.16-.28h0s0-.76,0-.76l-6.31-3.39Z"/><path class="cls-20" d="M216.32,173.69c-.2-.12-.45-.12-.64,0l-5.43,3.34-.61-.2v.77h0c0,.11,.05,.22,.16,.28l6.16,3.85c.2,.12,.45,.12,.65,0l5.87-3.61c.11-.07,.16-.17,.16-.28h0s0-.76,0-.76l-6.31-3.39Z"/><path class="cls-20" d="M225.02,168.32c-.2-.12-.45-.12-.64,0l-5.43,3.34-.61-.2v.77h0c0,.11,.05,.22,.16,.28l6.16,3.85c.2,.12,.45,.12,.65,0l5.87-3.61c.11-.07,.16-.17,.16-.28h0s0-.76,0-.76l-6.31-3.39Z"/><path class="cls-20" d="M233.73,162.95c-.2-.12-.45-.12-.64,0l-5.43,3.34-.61-.2v.77h0c0,.11,.05,.22,.16,.28l6.16,3.85c.2,.12,.45,.12,.65,0l5.87-3.61c.11-.07,.16-.17,.16-.28h0s0-.76,0-.76l-6.31-3.39Z"/><path class="cls-20" d="M147.67,228.13c-.2-.12-.45-.12-.64,0l-5.43,3.34-.61-.2v.77h0c0,.11,.05,.22,.16,.28l6.16,3.85c.2,.12,.45,.12,.65,0l5.87-3.61c.11-.07,.16-.17,.16-.28h0s0-.76,0-.76l-6.31-3.39Z"/><path class="cls-20" d="M156.38,222.76c-.2-.12-.45-.12-.64,0l-5.43,3.34-.61-.2v.77h0c0,.11,.05,.22,.16,.28l6.16,3.85c.2,.12,.45,.12,.65,0l5.87-3.61c.11-.07,.16-.17,.16-.28h0s0-.76,0-.76l-6.31-3.39Z"/><path class="cls-20" d="M165.08,217.39c-.2-.12-.45-.12-.64,0l-5.43,3.34-.61-.2v.77h0c0,.11,.05,.22,.16,.28l6.16,3.85c.2,.12,.45,.12,.65,0l5.87-3.61c.11-.07,.16-.17,.16-.28h0s0-.76,0-.76l-6.31-3.39Z"/><path class="cls-20" d="M173.79,212.02c-.2-.12-.45-.12-.64,0l-5.43,3.34-.61-.2v.77h0c0,.11,.05,.22,.16,.28l6.16,3.85c.2,.12,.45,.12,.65,0l5.87-3.61c.11-.07,.16-.17,.16-.28h0s0-.76,0-.76l-6.31-3.39Z"/><path class="cls-20" d="M182.49,206.66c-.2-.12-.45-.12-.64,0l-5.43,3.34-.61-.2v.77h0c0,.11,.05,.22,.16,.28l6.16,3.85c.2,.12,.45,.12,.65,0l5.87-3.61c.11-.07,.16-.17,.16-.28h0s0-.76,0-.76l-6.31-3.39Z"/><path class="cls-20" d="M191.2,201.29c-.2-.12-.45-.12-.64,0l-5.43,3.34-.61-.2v.77h0c0,.11,.05,.22,.16,.28l6.16,3.85c.2,.12,.45,.12,.65,0l5.87-3.61c.11-.07,.16-.17,.16-.28h0s0-.76,0-.76l-6.31-3.39Z"/><path class="cls-20" d="M199.9,195.92c-.2-.12-.45-.12-.64,0l-5.43,3.34-.61-.2v.77h0c0,.11,.05,.22,.16,.28l6.16,3.85c.2,.12,.45,.12,.65,0l5.87-3.61c.11-.07,.16-.17,.16-.28h0s0-.76,0-.76l-6.31-3.39Z"/><path class="cls-20" d="M208.61,190.55c-.2-.12-.45-.12-.64,0l-5.43,3.34-.61-.2v.77h0c0,.11,.05,.22,.16,.28l6.16,3.85c.2,.12,.45,.12,.65,0l5.87-3.61c.11-.07,.16-.17,.16-.28h0s0-.76,0-.76l-6.31-3.39Z"/><path class="cls-20" d="M217.31,185.19c-.2-.12-.45-.12-.64,0l-5.43,3.34-.61-.2v.77h0c0,.11,.05,.22,.16,.28l6.16,3.85c.2,.12,.45,.12,.65,0l5.87-3.61c.11-.07,.16-.17,.16-.28h0s0-.76,0-.76l-6.31-3.39Z"/><path class="cls-20" d="M226.02,179.82c-.2-.12-.45-.12-.64,0l-5.43,3.34-.61-.2v.77h0c0,.11,.05,.22,.16,.28l6.16,3.85c.2,.12,.45,.12,.65,0l5.87-3.61c.11-.07,.16-.17,.16-.28h0s0-.76,0-.76l-6.31-3.39Z"/><path class="cls-20" d="M234.72,174.45c-.2-.12-.45-.12-.64,0l-5.43,3.34-.61-.2v.77h0c0,.11,.05,.22,.16,.28l6.16,3.85c.2,.12,.45,.12,.65,0l5.87-3.61c.11-.07,.16-.17,.16-.28h0s0-.76,0-.76l-6.31-3.39Z"/><path class="cls-20" d="M243.43,169.08c-.2-.12-.45-.12-.64,0l-5.43,3.34-.61-.2v.77h0c0,.11,.05,.22,.16,.28l6.16,3.85c.2,.12,.45,.12,.65,0l5.87-3.61c.11-.07,.16-.17,.16-.28h0s0-.76,0-.76l-6.31-3.39Z"/><path class="cls-20" d="M157.38,234.25c-.2-.12-.45-.12-.64,0l-5.43,3.34-.61-.2v.77h0c0,.11,.05,.22,.16,.28l6.16,3.85c.2,.12,.45,.12,.65,0l5.87-3.61c.11-.07,.16-.17,.16-.28h0s0-.76,0-.76l-6.31-3.39Z"/><path class="cls-20" d="M166.08,228.89c-.2-.12-.45-.12-.64,0l-5.43,3.34-.61-.2v.77h0c0,.11,.05,.22,.16,.28l6.16,3.85c.2,.12,.45,.12,.65,0l5.87-3.61c.11-.07,.16-.17,.16-.28h0s0-.76,0-.76l-6.31-3.39Z"/><path class="cls-20" d="M174.79,223.52c-.2-.12-.45-.12-.64,0l-5.43,3.34-.61-.2v.77h0c0,.11,.05,.22,.16,.28l6.16,3.85c.2,.12,.45,.12,.65,0l5.87-3.61c.11-.07,.16-.17,.16-.28h0s0-.76,0-.76l-6.31-3.39Z"/><path class="cls-20" d="M183.49,218.15c-.2-.12-.45-.12-.64,0l-5.43,3.34-.61-.2v.77h0c0,.11,.05,.22,.16,.28l6.16,3.85c.2,.12,.45,.12,.65,0l5.87-3.61c.11-.07,.16-.17,.16-.28h0s0-.76,0-.76l-6.31-3.39Z"/><path class="cls-20" d="M192.2,212.78c-.2-.12-.45-.12-.64,0l-5.43,3.34-.61-.2v.77h0c0,.11,.05,.22,.16,.28l6.16,3.85c.2,.12,.45,.12,.65,0l5.87-3.61c.11-.07,.16-.17,.16-.28h0s0-.76,0-.76l-6.31-3.39Z"/><path class="cls-20" d="M200.9,207.42c-.2-.12-.45-.12-.64,0l-5.43,3.34-.61-.2v.77h0c0,.11,.05,.22,.16,.28l6.16,3.85c.2,.12,.45,.12,.65,0l5.87-3.61c.11-.07,.16-.17,.16-.28h0s0-.76,0-.76l-6.31-3.39Z"/><path class="cls-20" d="M209.61,202.05c-.2-.12-.45-.12-.64,0l-5.43,3.34-.61-.2v.77h0c0,.11,.05,.22,.16,.28l6.16,3.85c.2,.12,.45,.12,.65,0l5.87-3.61c.11-.07,.16-.17,.16-.28h0s0-.76,0-.76l-6.31-3.39Z"/><path class="cls-20" d="M218.31,196.68c-.2-.12-.45-.12-.64,0l-5.43,3.34-.61-.2v.77h0c0,.11,.05,.22,.16,.28l6.16,3.85c.2,.12,.45,.12,.65,0l5.87-3.61c.11-.07,.16-.17,.16-.28h0s0-.76,0-.76l-6.31-3.39Z"/><path class="cls-20" d="M227.02,191.31c-.2-.12-.45-.12-.64,0l-5.43,3.34-.61-.2v.77h0c0,.11,.05,.22,.16,.28l6.16,3.85c.2,.12,.45,.12,.65,0l5.87-3.61c.11-.07,.16-.17,.16-.28h0s0-.76,0-.76l-6.31-3.39Z"/><path class="cls-20" d="M235.72,185.95c-.2-.12-.45-.12-.64,0l-5.43,3.34-.61-.2v.77h0c0,.11,.05,.22,.16,.28l6.16,3.85c.2,.12,.45,.12,.65,0l5.87-3.61c.11-.07,.16-.17,.16-.28h0s0-.76,0-.76l-6.31-3.39Z"/><path class="cls-20" d="M244.43,180.58c-.2-.12-.45-.12-.64,0l-5.43,3.34-.61-.2v.77h0c0,.11,.05,.22,.16,.28l6.16,3.85c.2,.12,.45,.12,.65,0l5.87-3.61c.11-.07,.16-.17,.16-.28h0s0-.76,0-.76l-6.31-3.39Z"/><path class="cls-20" d="M253.13,175.21c-.2-.12-.45-.12-.64,0l-5.43,3.34-.61-.2v.77h0c0,.11,.05,.22,.16,.28l6.16,3.85c.2,.12,.45,.12,.65,0l5.87-3.61c.11-.07,.16-.17,.16-.28h0s0-.76,0-.76l-6.31-3.39Z"/><path class="cls-20" d="M167.08,240.38c-.2-.12-.45-.12-.64,0l-5.43,3.34-.61-.2v.77h0c0,.11,.05,.22,.16,.28l6.16,3.85c.2,.12,.45,.12,.65,0l5.87-3.61c.11-.07,.16-.17,.16-.28h0s0-.76,0-.76l-6.31-3.39Z"/><path class="cls-20" d="M175.78,235.02c-.2-.12-.45-.12-.64,0l-5.43,3.34-.61-.2v.77h0c0,.11,.05,.22,.16,.28l6.16,3.85c.2,.12,.45,.12,.65,0l5.87-3.61c.11-.07,.16-.17,.16-.28h0s0-.76,0-.76l-6.31-3.39Z"/><path class="cls-20" d="M184.49,229.65c-.2-.12-.45-.12-.64,0l-5.43,3.34-.61-.2v.77h0c0,.11,.05,.22,.16,.28l6.16,3.85c.2,.12,.45,.12,.65,0l5.87-3.61c.11-.07,.16-.17,.16-.28h0s0-.76,0-.76l-6.31-3.39Z"/><path class="cls-20" d="M193.19,224.28c-.2-.12-.45-.12-.64,0l-5.43,3.34-.61-.2v.77h0c0,.11,.05,.22,.16,.28l6.16,3.85c.2,.12,.45,.12,.65,0l5.87-3.61c.11-.07,.16-.17,.16-.28h0s0-.76,0-.76l-6.31-3.39Z"/><path class="cls-20" d="M201.9,218.91c-.2-.12-.45-.12-.64,0l-5.43,3.34-.61-.2v.77h0c0,.11,.05,.22,.16,.28l6.16,3.85c.2,.12,.45,.12,.65,0l5.87-3.61c.11-.07,.16-.17,.16-.28h0s0-.76,0-.76l-6.31-3.39Z"/><path class="cls-20" d="M210.6,213.55c-.2-.12-.45-.12-.64,0l-5.43,3.34-.61-.2v.77h0c0,.11,.05,.22,.16,.28l6.16,3.85c.2,.12,.45,.12,.65,0l5.87-3.61c.11-.07,.16-.17,.16-.28h0s0-.76,0-.76l-6.31-3.39Z"/><path class="cls-20" d="M219.31,208.18c-.2-.12-.45-.12-.64,0l-5.43,3.34-.61-.2v.77h0c0,.11,.05,.22,.16,.28l6.16,3.85c.2,.12,.45,.12,.65,0l5.87-3.61c.11-.07,.16-.17,.16-.28h0s0-.76,0-.76l-6.31-3.39Z"/><path class="cls-20" d="M228.01,202.81c-.2-.12-.45-.12-.64,0l-5.43,3.34-.61-.2v.77h0c0,.11,.05,.22,.16,.28l6.16,3.85c.2,.12,.45,.12,.65,0l5.87-3.61c.11-.07,.16-.17,.16-.28h0s0-.76,0-.76l-6.31-3.39Z"/><path class="cls-20" d="M236.72,197.44c-.2-.12-.45-.12-.64,0l-5.43,3.34-.61-.2v.77h0c0,.11,.05,.22,.16,.28l6.16,3.85c.2,.12,.45,.12,.65,0l5.87-3.61c.11-.07,.16-.17,.16-.28h0s0-.76,0-.76l-6.31-3.39Z"/><path class="cls-20" d="M245.42,192.08c-.2-.12-.45-.12-.64,0l-5.43,3.34-.61-.2v.77h0c0,.11,.05,.22,.16,.28l6.16,3.85c.2,.12,.45,.12,.65,0l5.87-3.61c.11-.07,.16-.17,.16-.28h0s0-.76,0-.76l-6.31-3.39Z"/><path class="cls-20" d="M254.13,186.71c-.2-.12-.45-.12-.64,0l-5.43,3.34-.61-.2v.77h0c0,.11,.05,.22,.16,.28l6.16,3.85c.2,.12,.45,.12,.65,0l5.87-3.61c.11-.07,.16-.17,.16-.28h0s0-.76,0-.76l-6.31-3.39Z"/><path class="cls-20" d="M262.83,181.34c-.2-.12-.45-.12-.64,0l-5.43,3.34-.61-.2v.77h0c0,.11,.05,.22,.16,.28l6.16,3.85c.2,.12,.45,.12,.65,0l5.87-3.61c.11-.07,.16-.17,.16-.28h0s0-.76,0-.76l-6.31-3.39Z"/><path class="cls-20" d="M176.78,246.51c-.2-.12-.45-.12-.64,0l-5.43,3.34-.61-.2v.77h0c0,.11,.05,.22,.16,.28l6.16,3.85c.2,.12,.45,.12,.65,0l5.87-3.61c.11-.07,.16-.17,.16-.28h0s0-.76,0-.76l-6.31-3.39Z"/><path class="cls-20" d="M185.49,241.14c-.2-.12-.45-.12-.64,0l-5.43,3.34-.61-.2v.77h0c0,.11,.05,.22,.16,.28l6.16,3.85c.2,.12,.45,.12,.65,0l5.87-3.61c.11-.07,.16-.17,.16-.28h0s0-.76,0-.76l-6.31-3.39Z"/><path class="cls-20" d="M194.19,235.78c-.2-.12-.45-.12-.64,0l-5.43,3.34-.61-.2v.77h0c0,.11,.05,.22,.16,.28l6.16,3.85c.2,.12,.45,.12,.65,0l5.87-3.61c.11-.07,.16-.17,.16-.28h0s0-.76,0-.76l-6.31-3.39Z"/><path class="cls-20" d="M202.9,230.41c-.2-.12-.45-.12-.64,0l-5.43,3.34-.61-.2v.77h0c0,.11,.05,.22,.16,.28l6.16,3.85c.2,.12,.45,.12,.65,0l5.87-3.61c.11-.07,.16-.17,.16-.28h0s0-.76,0-.76l-6.31-3.39Z"/><path class="cls-20" d="M211.6,225.04c-.2-.12-.45-.12-.64,0l-5.43,3.34-.61-.2v.77h0c0,.11,.05,.22,.16,.28l6.16,3.85c.2,.12,.45,.12,.65,0l5.87-3.61c.11-.07,.16-.17,.16-.28h0s0-.76,0-.76l-6.31-3.39Z"/><path class="cls-20" d="M220.31,219.67c-.2-.12-.45-.12-.64,0l-5.43,3.34-.61-.2v.77h0c0,.11,.05,.22,.16,.28l6.16,3.85c.2,.12,.45,.12,.65,0l5.87-3.61c.11-.07,.16-.17,.16-.28h0s0-.76,0-.76l-6.31-3.39Z"/><path class="cls-20" d="M229.01,214.31c-.2-.12-.45-.12-.64,0l-5.43,3.34-.61-.2v.77h0c0,.11,.05,.22,.16,.28l6.16,3.85c.2,.12,.45,.12,.65,0l5.87-3.61c.11-.07,.16-.17,.16-.28h0s0-.76,0-.76l-6.31-3.39Z"/><path class="cls-20" d="M237.72,208.94c-.2-.12-.45-.12-.64,0l-5.43,3.34-.61-.2v.77h0c0,.11,.05,.22,.16,.28l6.16,3.85c.2,.12,.45,.12,.65,0l5.87-3.61c.11-.07,.16-.17,.16-.28h0s0-.76,0-.76l-6.31-3.39Z"/><path class="cls-20" d="M246.42,203.57c-.2-.12-.45-.12-.64,0l-5.43,3.34-.61-.2v.77h0c0,.11,.05,.22,.16,.28l6.16,3.85c.2,.12,.45,.12,.65,0l5.87-3.61c.11-.07,.16-.17,.16-.28h0s0-.76,0-.76l-6.31-3.39Z"/><path class="cls-20" d="M255.13,198.2c-.2-.12-.45-.12-.64,0l-5.43,3.34-.61-.2v.77h0c0,.11,.05,.22,.16,.28l6.16,3.85c.2,.12,.45,.12,.65,0l5.87-3.61c.11-.07,.16-.17,.16-.28h0s0-.76,0-.76l-6.31-3.39Z"/><path class="cls-20" d="M263.83,192.84c-.2-.12-.45-.12-.64,0l-5.43,3.34-.61-.2v.77h0c0,.11,.05,.22,.16,.28l6.16,3.85c.2,.12,.45,.12,.65,0l5.87-3.61c.11-.07,.16-.17,.16-.28h0s0-.76,0-.76l-6.31-3.39Z"/><path class="cls-20" d="M272.54,187.47c-.2-.12-.45-.12-.64,0l-5.43,3.34-.61-.2v.77h0c0,.11,.05,.22,.16,.28l6.16,3.85c.2,.12,.45,.12,.65,0l5.87-3.61c.11-.07,.16-.17,.16-.28h0s0-.76,0-.76l-6.31-3.39Z"/><path class="cls-20" d="M186.49,252.64c-.2-.12-.45-.12-.64,0l-5.43,3.34-.61-.2v.77h0c0,.11,.05,.22,.16,.28l6.16,3.85c.2,.12,.45,.12,.65,0l5.87-3.61c.11-.07,.16-.17,.16-.28h0s0-.76,0-.76l-6.31-3.39Z"/><path class="cls-20" d="M195.19,247.27c-.2-.12-.45-.12-.64,0l-5.43,3.34-.61-.2v.77h0c0,.11,.05,.22,.16,.28l6.16,3.85c.2,.12,.45,.12,.65,0l5.87-3.61c.11-.07,.16-.17,.16-.28h0s0-.76,0-.76l-6.31-3.39Z"/><path class="cls-20" d="M203.9,241.91c-.2-.12-.45-.12-.64,0l-5.43,3.34-.61-.2v.77h0c0,.11,.05,.22,.16,.28l6.16,3.85c.2,.12,.45,.12,.65,0l5.87-3.61c.11-.07,.16-.17,.16-.28h0s0-.76,0-.76l-6.31-3.39Z"/><path class="cls-20" d="M247.42,215.07c-.2-.12-.45-.12-.64,0l-5.43,3.34-.61-.2v.77h0c0,.11,.05,.22,.16,.28l6.16,3.85c.2,.12,.45,.12,.65,0l5.87-3.61c.11-.07,.16-.17,.16-.28h0s0-.76,0-.76l-6.31-3.39Z"/><path class="cls-20" d="M256.13,209.7c-.2-.12-.45-.12-.64,0l-5.43,3.34-.61-.2v.77h0c0,.11,.05,.22,.16,.28l6.16,3.85c.2,.12,.45,.12,.65,0l5.87-3.61c.11-.07,.16-.17,.16-.28h0s0-.76,0-.76l-6.31-3.39Z"/><path class="cls-20" d="M264.83,204.33c-.2-.12-.45-.12-.64,0l-5.43,3.34-.61-.2v.77h0c0,.11,.05,.22,.16,.28l6.16,3.85c.2,.12,.45,.12,.65,0l5.87-3.61c.11-.07,.16-.17,.16-.28h0s0-.76,0-.76l-6.31-3.39Z"/><path class="cls-20" d="M273.53,198.97c-.2-.12-.45-.12-.64,0l-5.43,3.34-.61-.2v.77h0c0,.11,.05,.22,.16,.28l2.5,1.56c.2,.12,.45,.12,.65,0l5.87-3.61c.11-.07,.16-.17,.16-.28h0s0-.76,0-.76l-2.66-1.1Z"/><path class="cls-20" d="M277.19,201.25c-.2-.12-.45-.12-.64,0l-5.43,3.34-.61-.2v.77h0c0,.11,.05,.22,.16,.28l2.5,1.56c.2,.12,.45,.12,.65,0l5.87-3.61c.11-.07,.16-.17,.16-.28h0s0-.76,0-.76l-2.66-1.1Z"/><path class="cls-20" d="M282.24,193.6c-.2-.12-.45-.12-.64,0l-5.43,3.34-.61-.2v.77h0c0,.11,.05,.22,.16,.28l6.16,3.85c.2,.12,.45,.12,.65,0l5.87-3.61c.11-.07,.16-.17,.16-.28h0s0-.76,0-.76l-6.31-3.39Z"/><path class="cls-20" d="M238.72,220.44c-.2-.12-.45-.12-.64,0l-5.43,3.34-.61-.2v.77h0c0,.11,.05,.22,.16,.28l2.98,1.86-18.65,12.15-3.92-2.1c-.2-.12-.45-.12-.64,0l-5.43,3.34-.61-.2v.77h0c0,.11,.05,.22,.16,.28l6.16,3.85c.2,.12,.45,.12,.65,0l5.87-3.61s0,0,0,0l23.28-14.36h0l2.83-1.74c.11-.07,.16-.17,.16-.28h0s0-.76,0-.76l-6.31-3.39Z"/></g><g><path class="cls-5" d="M138.25,229.27l5.87-3.61c.22-.13,.22-.45,0-.58l-6.15-3.85c-.2-.12-.45-.12-.64,0l-5.88,3.61c-.21,.13-.21,.44,0,.57l6.16,3.85c.2,.12,.45,.12,.65,0Z"/><path class="cls-5" d="M146.96,223.9l5.87-3.61c.22-.13,.22-.45,0-.58l-6.15-3.85c-.2-.12-.45-.12-.64,0l-5.88,3.61c-.21,.13-.21,.44,0,.57l6.16,3.85c.2,.12,.45,.12,.65,0Z"/><path class="cls-5" d="M155.66,218.54l5.87-3.61c.22-.13,.22-.45,0-.58l-6.15-3.85c-.2-.12-.45-.12-.64,0l-5.88,3.61c-.21,.13-.21,.44,0,.57l6.16,3.85c.2,.12,.45,.12,.65,0Z"/><path class="cls-5" d="M164.37,213.17l5.87-3.61c.22-.13,.22-.45,0-.58l-6.15-3.85c-.2-.12-.45-.12-.64,0l-5.88,3.61c-.21,.13-.21,.44,0,.57l6.16,3.85c.2,.12,.45,.12,.65,0Z"/><path class="cls-5" d="M173.07,207.8l5.87-3.61c.22-.13,.22-.45,0-.58l-6.15-3.85c-.2-.12-.45-.12-.64,0l-5.88,3.61c-.21,.13-.21,.44,0,.57l6.16,3.85c.2,.12,.45,.12,.65,0Z"/><path class="cls-5" d="M181.78,202.43l5.87-3.61c.22-.13,.22-.45,0-.58l-6.15-3.85c-.2-.12-.45-.12-.64,0l-5.88,3.61c-.21,.13-.21,.44,0,.57l6.16,3.85c.2,.12,.45,.12,.65,0Z"/><path class="cls-5" d="M199.19,191.7l5.87-3.61c.22-.13,.22-.45,0-.58l-6.15-3.85c-.2-.12-.45-.12-.64,0l-5.88,3.61c-.21,.13-.21,.44,0,.57l6.16,3.85c.2,.12,.45,.12,.65,0Z"/><path class="cls-5" d="M207.89,186.33l5.87-3.61c.22-.13,.22-.45,0-.58l-6.15-3.85c-.2-.12-.45-.12-.64,0l-5.88,3.61c-.21,.13-.21,.44,0,.57l6.16,3.85c.2,.12,.45,.12,.65,0Z"/><path class="cls-5" d="M216.6,180.96l5.87-3.61c.22-.13,.22-.45,0-.58l-6.15-3.85c-.2-.12-.45-.12-.64,0l-5.88,3.61c-.21,.13-.21,.44,0,.57l6.16,3.85c.2,.12,.45,.12,.65,0Z"/><path class="cls-5" d="M225.3,175.6l5.87-3.61c.22-.13,.22-.45,0-.58l-6.15-3.85c-.2-.12-.45-.12-.64,0l-5.88,3.61c-.21,.13-.21,.44,0,.57l6.16,3.85c.2,.12,.45,.12,.65,0Z"/><path class="cls-5" d="M234.01,170.23l5.87-3.61c.22-.13,.22-.45,0-.58l-6.15-3.85c-.2-.12-.45-.12-.64,0l-5.88,3.61c-.21,.13-.21,.44,0,.57l6.16,3.85c.2,.12,.45,.12,.65,0Z"/><path class="cls-5" d="M147.95,235.4l5.87-3.61c.22-.13,.22-.45,0-.58l-6.15-3.85c-.2-.12-.45-.12-.64,0l-5.88,3.61c-.21,.13-.21,.44,0,.57l6.16,3.85c.2,.12,.45,.12,.65,0Z"/><path class="cls-5" d="M156.66,230.03l5.87-3.61c.22-.13,.22-.45,0-.58l-6.15-3.85c-.2-.12-.45-.12-.64,0l-5.88,3.61c-.21,.13-.21,.44,0,.57l6.16,3.85c.2,.12,.45,.12,.65,0Z"/><path class="cls-5" d="M165.36,224.66l5.87-3.61c.22-.13,.22-.45,0-.58l-6.15-3.85c-.2-.12-.45-.12-.64,0l-5.88,3.61c-.21,.13-.21,.44,0,.57l6.16,3.85c.2,.12,.45,.12,.65,0Z"/><path class="cls-5" d="M174.07,219.3l5.87-3.61c.22-.13,.22-.45,0-.58l-6.15-3.85c-.2-.12-.45-.12-.64,0l-5.88,3.61c-.21,.13-.21,.44,0,.57l6.16,3.85c.2,.12,.45,.12,.65,0Z"/><path class="cls-5" d="M182.77,213.93l5.87-3.61c.22-.13,.22-.45,0-.58l-6.15-3.85c-.2-.12-.45-.12-.64,0l-5.88,3.61c-.21,.13-.21,.44,0,.57l6.16,3.85c.2,.12,.45,.12,.65,0Z"/><path class="cls-5" d="M191.48,208.56l5.87-3.61c.22-.13,.22-.45,0-.58l-6.15-3.85c-.2-.12-.45-.12-.64,0l-5.88,3.61c-.21,.13-.21,.44,0,.57l6.16,3.85c.2,.12,.45,.12,.65,0Z"/><path class="cls-5" d="M200.18,203.19l5.87-3.61c.22-.13,.22-.45,0-.58l-6.15-3.85c-.2-.12-.45-.12-.64,0l-5.88,3.61c-.21,.13-.21,.44,0,.57l6.16,3.85c.2,.12,.45,.12,.65,0Z"/><path class="cls-5" d="M208.89,197.83l5.87-3.61c.22-.13,.22-.45,0-.58l-6.15-3.85c-.2-.12-.45-.12-.64,0l-5.88,3.61c-.21,.13-.21,.44,0,.57l6.16,3.85c.2,.12,.45,.12,.65,0Z"/><path class="cls-5" d="M217.59,192.46l5.87-3.61c.22-.13,.22-.45,0-.58l-6.15-3.85c-.2-.12-.45-.12-.64,0l-5.88,3.61c-.21,.13-.21,.44,0,.57l6.16,3.85c.2,.12,.45,.12,.65,0Z"/><path class="cls-5" d="M226.3,187.09l5.87-3.61c.22-.13,.22-.45,0-.58l-6.15-3.85c-.2-.12-.45-.12-.64,0l-5.88,3.61c-.21,.13-.21,.44,0,.57l6.16,3.85c.2,.12,.45,.12,.65,0Z"/><path class="cls-5" d="M235,181.72l5.87-3.61c.22-.13,.22-.45,0-.58l-6.15-3.85c-.2-.12-.45-.12-.64,0l-5.88,3.61c-.21,.13-.21,.44,0,.57l6.16,3.85c.2,.12,.45,.12,.65,0Z"/><path class="cls-5" d="M243.71,176.36l5.87-3.61c.22-.13,.22-.45,0-.58l-6.15-3.85c-.2-.12-.45-.12-.64,0l-5.88,3.61c-.21,.13-.21,.44,0,.57l6.16,3.85c.2,.12,.45,.12,.65,0Z"/><path class="cls-5" d="M157.66,241.53l5.87-3.61c.22-.13,.22-.45,0-.58l-6.15-3.85c-.2-.12-.45-.12-.64,0l-5.88,3.61c-.21,.13-.21,.44,0,.57l6.16,3.85c.2,.12,.45,.12,.65,0Z"/><path class="cls-5" d="M166.36,236.16l5.87-3.61c.22-.13,.22-.45,0-.58l-6.15-3.85c-.2-.12-.45-.12-.64,0l-5.88,3.61c-.21,.13-.21,.44,0,.57l6.16,3.85c.2,.12,.45,.12,.65,0Z"/><path class="cls-5" d="M175.07,230.79l5.87-3.61c.22-.13,.22-.45,0-.58l-6.15-3.85c-.2-.12-.45-.12-.64,0l-5.88,3.61c-.21,.13-.21,.44,0,.57l6.16,3.85c.2,.12,.45,.12,.65,0Z"/><path class="cls-5" d="M183.77,225.43l5.87-3.61c.22-.13,.22-.45,0-.58l-6.15-3.85c-.2-.12-.45-.12-.64,0l-5.88,3.61c-.21,.13-.21,.44,0,.57l6.16,3.85c.2,.12,.45,.12,.65,0Z"/><path class="cls-5" d="M192.48,220.06l5.87-3.61c.22-.13,.22-.45,0-.58l-6.15-3.85c-.2-.12-.45-.12-.64,0l-5.88,3.61c-.21,.13-.21,.44,0,.57l6.16,3.85c.2,.12,.45,.12,.65,0Z"/><path class="cls-5" d="M201.18,214.69l5.87-3.61c.22-.13,.22-.45,0-.58l-6.15-3.85c-.2-.12-.45-.12-.64,0l-5.88,3.61c-.21,.13-.21,.44,0,.57l6.16,3.85c.2,.12,.45,.12,.65,0Z"/><path class="cls-5" d="M209.89,209.32l5.87-3.61c.22-.13,.22-.45,0-.58l-6.15-3.85c-.2-.12-.45-.12-.64,0l-5.88,3.61c-.21,.13-.21,.44,0,.57l6.16,3.85c.2,.12,.45,.12,.65,0Z"/><path class="cls-5" d="M218.59,203.96l5.87-3.61c.22-.13,.22-.45,0-.58l-6.15-3.85c-.2-.12-.45-.12-.64,0l-5.88,3.61c-.21,.13-.21,.44,0,.57l6.16,3.85c.2,.12,.45,.12,.65,0Z"/><path class="cls-5" d="M227.3,198.59l5.87-3.61c.22-.13,.22-.45,0-.58l-6.15-3.85c-.2-.12-.45-.12-.64,0l-5.88,3.61c-.21,.13-.21,.44,0,.57l6.16,3.85c.2,.12,.45,.12,.65,0Z"/><path class="cls-5" d="M236,193.22l5.87-3.61c.22-.13,.22-.45,0-.58l-6.15-3.85c-.2-.12-.45-.12-.64,0l-5.88,3.61c-.21,.13-.21,.44,0,.57l6.16,3.85c.2,.12,.45,.12,.65,0Z"/><path class="cls-5" d="M244.71,187.85l5.87-3.61c.22-.13,.22-.45,0-.58l-6.15-3.85c-.2-.12-.45-.12-.64,0l-5.88,3.61c-.21,.13-.21,.44,0,.57l6.16,3.85c.2,.12,.45,.12,.65,0Z"/><path class="cls-5" d="M253.41,182.49l5.87-3.61c.22-.13,.22-.45,0-.58l-6.15-3.85c-.2-.12-.45-.12-.64,0l-5.88,3.61c-.21,.13-.21,.44,0,.57l6.16,3.85c.2,.12,.45,.12,.65,0Z"/><path class="cls-5" d="M167.36,247.66l5.87-3.61c.22-.13,.22-.45,0-.58l-6.15-3.85c-.2-.12-.45-.12-.64,0l-5.88,3.61c-.21,.13-.21,.44,0,.57l6.16,3.85c.2,.12,.45,.12,.65,0Z"/><path class="cls-5" d="M176.06,242.29l5.87-3.61c.22-.13,.22-.45,0-.58l-6.15-3.85c-.2-.12-.45-.12-.64,0l-5.88,3.61c-.21,.13-.21,.44,0,.57l6.16,3.85c.2,.12,.45,.12,.65,0Z"/><path class="cls-5" d="M184.77,236.92l5.87-3.61c.22-.13,.22-.45,0-.58l-6.15-3.85c-.2-.12-.45-.12-.64,0l-5.88,3.61c-.21,.13-.21,.44,0,.57l6.16,3.85c.2,.12,.45,.12,.65,0Z"/><path class="cls-5" d="M193.47,231.55l5.87-3.61c.22-.13,.22-.45,0-.58l-6.15-3.85c-.2-.12-.45-.12-.64,0l-5.88,3.61c-.21,.13-.21,.44,0,.57l6.16,3.85c.2,.12,.45,.12,.65,0Z"/><path class="cls-5" d="M202.18,226.19l5.87-3.61c.22-.13,.22-.45,0-.58l-6.15-3.85c-.2-.12-.45-.12-.64,0l-5.88,3.61c-.21,.13-.21,.44,0,.57l6.16,3.85c.2,.12,.45,.12,.65,0Z"/><path class="cls-5" d="M210.88,220.82l5.87-3.61c.22-.13,.22-.45,0-.58l-6.15-3.85c-.2-.12-.45-.12-.64,0l-5.88,3.61c-.21,.13-.21,.44,0,.57l6.16,3.85c.2,.12,.45,.12,.65,0Z"/><path class="cls-5" d="M219.59,215.45l5.87-3.61c.22-.13,.22-.45,0-.58l-6.15-3.85c-.2-.12-.45-.12-.64,0l-5.88,3.61c-.21,.13-.21,.44,0,.57l6.16,3.85c.2,.12,.45,.12,.65,0Z"/><path class="cls-5" d="M228.29,210.08l5.87-3.61c.22-.13,.22-.45,0-.58l-6.15-3.85c-.2-.12-.45-.12-.64,0l-5.88,3.61c-.21,.13-.21,.44,0,.57l6.16,3.85c.2,.12,.45,.12,.65,0Z"/><path class="cls-5" d="M237,204.72l5.87-3.61c.22-.13,.22-.45,0-.58l-6.15-3.85c-.2-.12-.45-.12-.64,0l-5.88,3.61c-.21,.13-.21,.44,0,.57l6.16,3.85c.2,.12,.45,.12,.65,0Z"/><path class="cls-5" d="M245.7,199.35l5.87-3.61c.22-.13,.22-.45,0-.58l-6.15-3.85c-.2-.12-.45-.12-.64,0l-5.88,3.61c-.21,.13-.21,.44,0,.57l6.16,3.85c.2,.12,.45,.12,.65,0Z"/><path class="cls-5" d="M254.41,193.98l5.87-3.61c.22-.13,.22-.45,0-.58l-6.15-3.85c-.2-.12-.45-.12-.64,0l-5.88,3.61c-.21,.13-.21,.44,0,.57l6.16,3.85c.2,.12,.45,.12,.65,0Z"/><path class="cls-5" d="M263.11,188.61l5.87-3.61c.22-.13,.22-.45,0-.58l-6.15-3.85c-.2-.12-.45-.12-.64,0l-5.88,3.61c-.21,.13-.21,.44,0,.57l6.16,3.85c.2,.12,.45,.12,.65,0Z"/><path class="cls-5" d="M177.06,253.79l5.87-3.61c.22-.13,.22-.45,0-.58l-6.15-3.85c-.2-.12-.45-.12-.64,0l-5.88,3.61c-.21,.13-.21,.44,0,.57l6.16,3.85c.2,.12,.45,.12,.65,0Z"/><path class="cls-5" d="M185.77,248.42l5.87-3.61c.22-.13,.22-.45,0-.58l-6.15-3.85c-.2-.12-.45-.12-.64,0l-5.88,3.61c-.21,.13-.21,.44,0,.57l6.16,3.85c.2,.12,.45,.12,.65,0Z"/><path class="cls-5" d="M194.47,243.05l5.87-3.61c.22-.13,.22-.45,0-.58l-6.15-3.85c-.2-.12-.45-.12-.64,0l-5.88,3.61c-.21,.13-.21,.44,0,.57l6.16,3.85c.2,.12,.45,.12,.65,0Z"/><path class="cls-5" d="M203.18,237.68l5.87-3.61c.22-.13,.22-.45,0-.58l-6.15-3.85c-.2-.12-.45-.12-.64,0l-5.88,3.61c-.21,.13-.21,.44,0,.57l6.16,3.85c.2,.12,.45,.12,.65,0Z"/><path class="cls-5" d="M211.88,232.32l5.87-3.61c.22-.13,.22-.45,0-.58l-6.15-3.85c-.2-.12-.45-.12-.64,0l-5.88,3.61c-.21,.13-.21,.44,0,.57l6.16,3.85c.2,.12,.45,.12,.65,0Z"/><path class="cls-5" d="M220.59,226.95l5.87-3.61c.22-.13,.22-.45,0-.58l-6.15-3.85c-.2-.12-.45-.12-.64,0l-5.88,3.61c-.21,.13-.21,.44,0,.57l6.16,3.85c.2,.12,.45,.12,.65,0Z"/><path class="cls-5" d="M229.29,221.58l5.87-3.61c.22-.13,.22-.45,0-.58l-6.15-3.85c-.2-.12-.45-.12-.64,0l-5.88,3.61c-.21,.13-.21,.44,0,.57l6.16,3.85c.2,.12,.45,.12,.65,0Z"/><path class="cls-5" d="M238,216.21l5.87-3.61c.22-.13,.22-.45,0-.58l-6.15-3.85c-.2-.12-.45-.12-.64,0l-5.88,3.61c-.21,.13-.21,.44,0,.57l6.16,3.85c.2,.12,.45,.12,.65,0Z"/><path class="cls-5" d="M246.7,210.85l5.87-3.61c.22-.13,.22-.45,0-.58l-6.15-3.85c-.2-.12-.45-.12-.64,0l-5.88,3.61c-.21,.13-.21,.44,0,.57l6.16,3.85c.2,.12,.45,.12,.65,0Z"/><path class="cls-5" d="M255.41,205.48l5.87-3.61c.22-.13,.22-.45,0-.58l-6.15-3.85c-.2-.12-.45-.12-.64,0l-5.88,3.61c-.21,.13-.21,.44,0,.57l6.16,3.85c.2,.12,.45,.12,.65,0Z"/><path class="cls-5" d="M264.11,200.11l5.87-3.61c.22-.13,.22-.45,0-.58l-6.15-3.85c-.2-.12-.45-.12-.64,0l-5.88,3.61c-.21,.13-.21,.44,0,.57l6.16,3.85c.2,.12,.45,.12,.65,0Z"/><path class="cls-5" d="M272.82,194.74l5.87-3.61c.22-.13,.22-.45,0-.58l-6.15-3.85c-.2-.12-.45-.12-.64,0l-5.88,3.61c-.21,.13-.21,.44,0,.57l6.16,3.85c.2,.12,.45,.12,.65,0Z"/><path class="cls-5" d="M186.76,259.91l5.87-3.61c.22-.13,.22-.45,0-.58l-6.15-3.85c-.2-.12-.45-.12-.64,0l-5.88,3.61c-.21,.13-.21,.44,0,.57l6.16,3.85c.2,.12,.45,.12,.65,0Z"/><path class="cls-5" d="M195.47,254.55l5.87-3.61c.22-.13,.22-.45,0-.58l-6.15-3.85c-.2-.12-.45-.12-.64,0l-5.88,3.61c-.21,.13-.21,.44,0,.57l6.16,3.85c.2,.12,.45,.12,.65,0Z"/><path class="cls-5" d="M204.17,249.18l5.87-3.61c.22-.13,.22-.45,0-.58l-6.15-3.85c-.2-.12-.45-.12-.64,0l-5.88,3.61c-.21,.13-.21,.44,0,.57l6.16,3.85c.2,.12,.45,.12,.65,0Z"/><path class="cls-5" d="M247.7,222.34l5.87-3.61c.22-.13,.22-.45,0-.58l-6.15-3.85c-.2-.12-.45-.12-.64,0l-5.88,3.61c-.21,.13-.21,.44,0,.57l6.16,3.85c.2,.12,.45,.12,.65,0Z"/><path class="cls-5" d="M256.4,216.97l5.87-3.61c.22-.13,.22-.45,0-.58l-6.15-3.85c-.2-.12-.45-.12-.64,0l-5.88,3.61c-.21,.13-.21,.44,0,.57l6.16,3.85c.2,.12,.45,.12,.65,0Z"/><path class="cls-5" d="M265.11,211.61l5.87-3.61c.22-.13,.22-.45,0-.58l-6.15-3.85c-.2-.12-.45-.12-.64,0l-5.88,3.61c-.21,.13-.21,.44,0,.57l6.16,3.85c.2,.12,.45,.12,.65,0Z"/><path class="cls-5" d="M270.16,203.96l5.87-3.61c.22-.13,.22-.45,0-.58l-2.5-1.56c-.2-.12-.45-.12-.64,0l-5.88,3.61c-.21,.13-.21,.44,0,.57l2.5,1.56c.2,.12,.45,.12,.65,0Z"/><path class="cls-5" d="M273.82,206.24l5.87-3.61c.22-.13,.22-.45,0-.58l-2.5-1.56c-.2-.12-.45-.12-.64,0l-5.88,3.61c-.21,.13-.21,.44,0,.57l2.5,1.56c.2,.12,.45,.12,.65,0Z"/><path class="cls-5" d="M282.52,200.87l5.87-3.61c.22-.13,.22-.45,0-.58l-6.15-3.85c-.2-.12-.45-.12-.64,0l-5.88,3.61c-.21,.13-.21,.44,0,.57l6.16,3.85c.2,.12,.45,.12,.65,0Z"/><path class="cls-5" d="M244.87,223.52l-6.15-3.85c-.2-.12-.45-.12-.64,0l-5.88,3.61s0,0-.01,.01l-21.55,13.29h0l-4.55,2.8c-.21,.13-.21,.44,0,.57l6.16,3.85c.2,.12,.45,.12,.65,0l5.87-3.61s0,0,0,0l22.82-14.07h0l3.3-2.03c.22-.13,.22-.45,0-.58Z"/></g></g><g><path class="cls-33" d="M17.99,103.72v16.5c0,.44-.21,.86-.58,1.12-.02,0-.03,.02-.05,.03l-5.39,3.32-11.14,6.86c-.2,.12-.42,.11-.58,0-.14-.09-.25-.25-.25-.45v-16.08c0-.58,.3-1.12,.8-1.44l16.57-10.21c.12-.07,.25-.08,.37-.03,.02,0,.05,.02,.07,.04,.11,.07,.18,.2,.18,.34Z"/><path class="cls-33" d="M134.69,31.93v16.5c0,.44-.21,.86-.58,1.12-.02,0-.03,.02-.05,.03l-5.39,3.32-11.14,6.86c-.2,.12-.42,.11-.58,0-.14-.09-.25-.25-.25-.45v-16.08c0-.58,.3-1.12,.8-1.44l16.57-10.21c.12-.07,.25-.08,.37-.03,.02,0,.05,.02,.07,.04,.11,.07,.18,.2,.18,.34Z"/><path class="cls-7" d="M168.83,.62V25.3c0,.66-.32,1.29-.87,1.67-.02,.01-.05,.04-.07,.05l-8.07,4.97-16.66,10.26c-.29,.18-.63,.16-.87-.01-.21-.14-.37-.38-.37-.68V17.52c0-.87,.45-1.68,1.19-2.15L167.9,.1c.18-.11,.38-.12,.55-.05,.04,.01,.07,.04,.11,.06,.16,.11,.27,.29,.27,.52Z"/><path class="cls-7" d="M54.97,301.49v24.68c0,.66-.32,1.29-.87,1.67-.02,.01-.05,.04-.07,.05l-8.07,4.97-16.66,10.26c-.29,.18-.63,.16-.87-.01-.21-.13-.37-.38-.37-.68v-24.05c0-.87,.45-1.68,1.19-2.15l24.79-15.27c.18-.11,.38-.12,.55-.05,.04,.01,.07,.04,.11,.06,.16,.11,.27,.29,.27,.52Z"/><path class="cls-8" d="M319.86,81.29v28.12c0,.76-.36,1.47-.99,1.9-.03,.01-.06,.04-.08,.06l-9.19,5.67-18.99,11.7c-.34,.21-.71,.18-.99-.01-.24-.15-.42-.43-.42-.77v-27.41c0-.99,.52-1.92,1.36-2.45l28.25-17.41c.21-.13,.43-.14,.63-.06,.04,.01,.08,.04,.13,.07,.18,.13,.31,.34,.31,.59Z"/><path class="cls-8" d="M96.5,5.9v28.12c0,.76-.36,1.47-.99,1.9-.03,.01-.06,.04-.08,.06l-9.19,5.67-18.99,11.7c-.34,.21-.71,.18-.99-.01-.24-.15-.42-.43-.42-.77V25.15c0-.99,.52-1.92,1.36-2.45L95.44,5.29c.21-.13,.43-.14,.63-.06,.04,.01,.08,.04,.13,.07,.18,.13,.31,.34,.31,.59Z"/><path class="cls-8" d="M85.49,77.37v28.12c0,.76-.36,1.47-.99,1.9-.03,.01-.06,.04-.08,.06l-9.19,5.67-18.99,11.7c-.34,.21-.71,.18-.99-.01-.24-.15-.42-.43-.42-.77v-27.41c0-.99,.52-1.92,1.36-2.45l28.25-17.41c.21-.13,.43-.14,.63-.06,.04,.01,.08,.04,.13,.07,.18,.13,.31,.34,.31,.59Z"/><path class="cls-8" d="M101.56,116.74v23.59c0,.63-.31,1.23-.83,1.6-.02,.01-.05,.04-.07,.05l-7.71,4.75-15.92,9.81c-.28,.18-.6,.15-.83-.01-.2-.13-.35-.36-.35-.65v-22.99c0-.83,.43-1.61,1.14-2.05l23.69-14.6c.18-.11,.36-.12,.53-.05,.04,.01,.07,.04,.11,.06,.15,.11,.26,.28,.26,.49Z"/></g><g><polygon class="cls-2" points="153.82 85.16 121.57 105.02 121.57 105.03 117.03 107.82 121.57 110.31 121.57 227.98 220.05 288.18 266.6 259.51 153.82 85.16"/><g><path class="cls-5" d="M337.43,245.78l-89.07,54.87-25.45-17.25c-11.3-7.66-18.07-20.43-18.08-34.09v-.33c0-7.17-1.78-14.09-5.05-20.23-3.54-6.64-8.82-12.36-15.45-16.43-4.22-2.59-9.02-2.46-12.85-.48l-.05,.02c-.6,.31-1.17,.67-1.72,1.07-3.17,2.31-5.33,6.04-5.34,10.55v6.31c0,7.89-8.68,12.68-15.36,8.48h-.01c-6.41-4.02-10.3-11.07-10.3-18.63V93.08c0-6.21-4.37-10.85-9.67-12.06-5.32,1.35-10.55,2.56-10.55,2.56L205.21,30.07l3.66-2.35c.43-.27,.87-.5,1.31-.72,1.29-.61,2.62-.97,3.93-1.11,6.9-.72,13.65,4.6,13.65,12.32v126.55c0,3.8,.99,7.49,2.78,10.7l28.2-17.38c.59-.43,1.21-.82,1.87-1.14l.05-.04c1.82-.92,3.84-1.42,5.91-1.42,2.29,0,4.63,.61,6.83,1.96,12.74,7.83,20.5,21.7,20.51,36.65v.34c0,13.66,6.77,26.43,18.07,34.09l25.45,17.25Z"/><path class="cls-5" d="M241.68,187.36l4.95-3.05c-1.31,1.48-3.05,2.54-4.95,3.05Z"/><path class="cls-4" d="M193.27,219.94l-32.73,19.99-.13-2.04c2.36-1.78,3.95-4.61,3.95-7.99v-6.31c.01-4.51,2.17-8.24,5.34-10.55,.55-.4,1.13-.76,1.72-1.07l.05-.02c3.83-1.98,8.62-2.11,12.85,.48,2.79,1.71,6.66,5.26,8.95,7.52Z"/><path class="cls-4" d="M138.69,94.48v-1.38c0-9.7-10.66-15.62-18.89-10.49h0c-3.49,2.17-5.61,5.99-5.61,10.1v16.87l24.5-15.1Z"/><polygon class="cls-15" points="337.43 245.77 337.43 248.22 248.35 303.03 248.35 300.64 337.43 245.77"/><path class="cls-27" d="M230.54,175.47l-59.07,36.38-.05,.02c-.44,.23-.88,.48-1.3,.78-.14,.1-.28,.19-.42,.29-3.17,2.32-5.32,6.04-5.34,10.55v6.31c0,7.88-8.68,12.69-15.36,8.49h-.01c-6.41-4.03-10.31-11.07-10.31-18.64V93.08c0-6.2-4.36-10.86-9.66-12.06-5.32,1.36-10.55,2.56-10.55,2.56L205.2,30.07l3.66-2.35c.44-.27,.87-.51,1.31-.71,1.29-.61,2.62-.98,3.93-1.12,6.9-.71,13.64,4.6,13.64,12.32v126.56c0,3.8,.99,7.48,2.79,10.69Z"/><path class="cls-27" d="M228.17,174.77l-56.74,34.88c-.31-.89-.56-1.81-.75-2.75l56.24-34.56c.37,.84,.79,1.65,1.26,2.42Z"/><path class="cls-23" d="M129.02,81.01c5.3,1.21,9.67,5.86,9.67,12.06v126.56c0,7.57,3.9,14.61,10.3,18.63h.01c6.68,4.2,15.36-.6,15.36-8.48v-6.31c.01-4.51,2.17-8.24,5.34-10.55,.55-.4,1.13-.76,1.72-1.07l.05-.02c3.83-1.98,8.62-2.11,12.85,.48,6.63,4.07,11.91,9.79,15.45,16.43,3.26,6.14,5.05,13.06,5.05,20.23v.33c.01,13.66,6.78,26.43,18.08,34.09l25.45,17.25v2.38l-26.36-17.7s-8.78-7.37-11.25-10.85c-2.62-3.69-5.66-10.1-6.62-15.06-.96-4.96-.98-10.95-1.23-14.37-.26-3.42-2.03-10.09-4.71-15.51-4.3-8.72-10.53-13.2-14.74-15.84-2.75-1.73-8.43-3.09-12.64,.23,0,0-4.47,2.99-4.77,9.48-.29,6.48,1,11.7-4.5,15.82-6,4.5-9.86,2.69-12.7,1.31-.91-.44-4.99-2.85-8.4-8.22-4.3-6.77-3.57-13.02-3.57-13.02l-.2-125.67s.62-8.39-7.86-10.93c0,0-7.37-1.64-11.26,4.23,0,0-1.5,1.93-1.65,5.5-.15,3.57,.11,16.03,.11,16.03l-1.84,1.14v-17.23s.1-3,1.59-5.58c1.7-2.95,6.03-7.05,13.24-5.76Z"/><path class="cls-27" d="M166.33,203.42s-.02,0-.03,0c0,0,.01,0,.03,0Z"/></g><g><path class="cls-26" d="M176.83,99.82l-33.72,20.74c-.5,.31-1.14-.05-1.14-.63v-20.56c0-.72,.37-1.39,.98-1.77l34.1-20.98c.4-.25,.91,.04,.91,.51v20.64c0,.84-.43,1.61-1.14,2.05Z"/><path class="cls-29" d="M224.78,76.63l-82.29,50.73c-.22,.14-.51-.02-.51-.28v-2.26c0-.21,.11-.41,.29-.52l82.33-50.75c.23-.14,.52,.02,.52,.29v2.19c0,.24-.13,.47-.33,.6Z"/><path class="cls-29" d="M224.78,70.4l-44.01,27.04c-.22,.14-.51-.02-.51-.28v-2.26c0-.21,.11-.41,.29-.52l44.05-27.06c.23-.14,.52,.02,.52,.29v2.19c0,.24-.13,.47-.33,.6Z"/><path class="cls-29" d="M224.78,63.78l-44.01,27.04c-.22,.14-.51-.02-.51-.28v-2.26c0-.21,.11-.41,.29-.52l44.05-27.06c.23-.14,.52,.02,.52,.29v2.19c0,.24-.13,.47-.33,.6Z"/><path class="cls-29" d="M224.78,57.17l-44.01,27.04c-.22,.14-.51-.02-.51-.28v-2.26c0-.21,.11-.41,.29-.52l44.05-27.06c.23-.14,.52,.02,.52,.29v2.19c0,.24-.13,.47-.33,.6Z"/><path class="cls-26" d="M224.78,50.55l-44.01,27.04c-.22,.14-.51-.02-.51-.28v-2.26c0-.21,.11-.41,.29-.52l44.05-27.06c.23-.14,.52,.02,.52,.29v2.19c0,.24-.13,.47-.33,.6Z"/><path class="cls-29" d="M180.54,163.33l19.08-11.72c.18-.11,.42,.02,.42,.24v2.27c0,.27-.14,.52-.37,.66l-18.91,11.62c-.23,.13-.51-.02-.51-.29v-2.26c0-.2,.11-.4,.28-.52Z"/><path class="cls-29" d="M225.11,136.57v2.19c0,.25-.13,.47-.33,.6l-21.57,13.26c-.23,.14-.53-.02-.53-.29v-2.17c0-.26,.13-.5,.36-.64l21.55-13.23c.24-.15,.53,.02,.53,.29Z"/><path class="cls-29" d="M224.78,132.74l-48.28,29.69c-.22,.14-.51-.02-.51-.28v-2.26c0-.21,.11-.41,.29-.52l48.32-29.71c.23-.14,.52,.02,.52,.29v2.19c0,.24-.13,.47-.33,.6Z"/><path class="cls-29" d="M224.78,126.12l-44.01,27.04c-.22,.14-.51-.02-.51-.28v-2.26c0-.21,.11-.41,.29-.52l44.05-27.06c.23-.14,.52,.02,.52,.29v2.19c0,.24-.13,.47-.33,.6Z"/><path class="cls-29" d="M224.78,119.51l-44.01,27.04c-.22,.14-.51-.02-.51-.28v-2.26c0-.21,.11-.41,.29-.52l44.05-27.06c.23-.14,.52,.02,.52,.29v2.19c0,.24-.13,.47-.33,.6Z"/><path class="cls-29" d="M224.78,164.84l-44.01,27.04c-.22,.14-.51-.02-.51-.28v-2.26c0-.21,.11-.41,.29-.52l44.05-27.06c.23-.14,.52,.02,.52,.29v2.19c0,.24-.13,.47-.33,.6Z"/><path class="cls-18" d="M224.96,170.8l-54.29,33.36c-.27,.17-.36,.01-.39-.11h0c-.03-.52-.05-1.03-.05-1.55v-.86c0-.3,.14-.47,.22-.54,.03-.02,.04-.03,.04-.03l54.22-33.33c.2-.13,.46,.01,.48,.26,.05,.59,.13,1.18,.23,1.77,.06,.41-.12,.82-.46,1.03Z"/><path class="cls-29" d="M226.57,175.75l-54.55,33.53c-.3,.18-.7,.04-.8-.29-.16-.53-.31-1.07-.43-1.61-.07-.29,.06-.58,.31-.74l54.65-33.58c.21-.13,.48-.03,.55,.21,.17,.51,.36,1.02,.57,1.52,.15,.35,.03,.76-.3,.97Z"/><path class="cls-29" d="M224.78,158.23l-44.01,27.04c-.22,.14-.51-.02-.51-.28v-2.26c0-.21,.11-.41,.29-.52l44.05-27.06c.23-.14,.52,.02,.52,.29v2.19c0,.24-.13,.47-.33,.6Z"/><path class="cls-29" d="M224.78,151.61l-44.01,27.04c-.22,.14-.51-.02-.51-.28v-2.26c0-.21,.11-.41,.29-.52l44.05-27.06c.23-.14,.52,.02,.52,.29v2.19c0,.24-.13,.47-.33,.6Z"/><path class="cls-29" d="M180.54,168.97l26.01-15.98c.15-.09,.34,.02,.34,.19v2.52c0,.17-.09,.32-.23,.41l-25.9,15.92c-.23,.14-.51-.02-.51-.28v-2.26c0-.22,.11-.41,.28-.52Z"/><path class="cls-25" d="M225.11,142.2v2.2c0,.24-.13,.46-.33,.59l-14.81,9.09c-.19,.12-.43-.02-.43-.24v-2.41c0-.18,.09-.34,.24-.43l14.8-9.09c.24-.14,.53,.02,.53,.29Z"/><path class="cls-29" d="M173.65,170.68l-30.5,18.79c-.22,.14-.51-.02-.51-.28v-2.26c0-.21,.11-.41,.29-.52l30.53-18.81c.23-.14,.52,.02,.52,.29v2.19c0,.24-.13,.47-.34,.6Z"/><path class="cls-17" d="M173.65,164.06l-30.5,18.79c-.22,.14-.51-.02-.51-.28v-2.26c0-.21,.11-.41,.29-.52l30.53-18.81c.23-.14,.52,.02,.52,.29v2.19c0,.24-.13,.47-.34,.6Z"/><path class="cls-17" d="M173.65,158.23l-30.5,18.79c-.22,.14-.51-.02-.51-.28v-10.67c0-.21,.11-.41,.29-.52l30.53-18.81c.23-.14,.52,.02,.52,.29v10.6c0,.24-.13,.47-.34,.6Z"/><path class="cls-29" d="M173.65,196.16l-26.32,16.24c-.22,.14-.51-.02-.51-.28v-2.26c0-.21,.11-.41,.29-.52l26.35-16.26c.23-.14,.52,.02,.52,.29v2.19c0,.24-.13,.47-.34,.6Z"/><path class="cls-29" d="M173.65,189.55l-30.5,18.79c-.22,.14-.51-.02-.51-.28v-2.26c0-.21,.11-.41,.29-.52l30.53-18.81c.23-.14,.52,.02,.52,.29v2.19c0,.24-.13,.47-.34,.6Z"/><path class="cls-29" d="M173.65,182.93l-30.5,18.79c-.22,.14-.51-.02-.51-.28v-2.26c0-.21,.11-.41,.29-.52l30.53-18.81c.23-.14,.52,.02,.52,.29v2.19c0,.24-.13,.47-.34,.6Z"/><path class="cls-29" d="M173.65,176.32l-30.5,18.79c-.22,.14-.51-.02-.51-.28v-2.26c0-.21,.11-.41,.29-.52l30.53-18.81c.23-.14,.52,.02,.52,.29v2.19c0,.24-.13,.47-.34,.6Z"/><path class="cls-29" d="M202.61,97.49l-60.12,37.1c-.22,.14-.51-.02-.51-.28v-2.26c0-.21,.11-.41,.29-.52l60.16-37.12c.23-.14,.52,.02,.52,.29v2.19c0,.24-.13,.47-.34,.6Z"/><path class="cls-29" d="M142.26,138.74l27.54-16.98c.19-.11,.42,.02,.42,.24v2.25c0,.28-.15,.54-.38,.69l-27.37,16.88c-.22,.13-.51-.02-.51-.29v-2.26c0-.2,.11-.4,.29-.52Z"/><path class="cls-29" d="M225.11,88.29v2.19c0,.25-.13,.47-.33,.6l-51.31,31.63c-.26,.16-.6-.03-.6-.33v-2.06c0-.27,.14-.53,.38-.67l51.34-31.65c.24-.14,.53,.02,.53,.29Z"/><path class="cls-29" d="M224.78,98.3l-82.29,50.73c-.22,.14-.51-.02-.51-.28v-2.26c0-.21,.11-.41,.29-.52l82.33-50.75c.23-.14,.52,.02,.52,.29v2.19c0,.24-.13,.47-.33,.6Z"/><path class="cls-29" d="M142.26,153.2l41.46-25.56c.24-.15,.55,.02,.55,.31v2.13c0,.26-.14,.51-.36,.65l-41.43,25.54c-.22,.14-.51-.02-.51-.28v-2.26c0-.22,.11-.41,.29-.52Z"/><path class="cls-29" d="M225.11,102.73v2.2c0,.24-.13,.46-.33,.59l-37.18,22.92c-.29,.18-.67-.03-.67-.38v-1.93c0-.29,.15-.57,.4-.72l37.26-22.97c.24-.14,.53,.02,.53,.29Z"/><path class="cls-29" d="M224.78,112.75l-82.29,50.73c-.22,.14-.51-.02-.51-.28v-2.26c0-.21,.11-.41,.29-.52l82.33-50.75c.23-.14,.52,.02,.52,.29v2.19c0,.24-.13,.47-.33,.6Z"/><path class="cls-18" d="M169.33,213.21c-2.96,2.33-4.95,5.93-4.98,10.27v3.75c0,.16-.08,.3-.22,.39-1.52,.93-10.56,6.46-12.2,7.47-.15,.09-.34,.09-.5-.01-1.85-1.23-3.47-2.69-4.84-4.36-.52-.61-1-1.27-1.43-1.94-.01-.01-.01-.02-.02-.03-2.71-4.52-2.81-10.79-2.2-11.17l22.65-13.92s.37-.26,.65-.24c.27,.02,.55,.09,.61,.83,0,.04,.01,.08,.01,.11h0c.18,3.14,1.03,6.14,2.46,8.85Z"/><path class="cls-29" d="M164.35,229.24v.55c0,.52-.03,1.02-.11,1.51l-7.89,4.74c-.84,.5-1.86,.57-2.76,.21-.16-.07-.33-.14-.49-.21l11.25-6.8Z"/><path class="cls-28" d="M249.59,208.51l-41.43,25.61c-.79,.49-1.83,.11-2.1-.78-.82-2.78-1.92-5.46-3.27-8.01-3.54-6.63-8.83-12.35-15.45-16.42-1.12-.69-2.29-1.19-3.46-1.51-.63-.17-.73-1.02-.18-1.36l6.58-4.08,22.67-14.03,11.55-7.15c.88-.54,1.92-.78,2.94-.59,1.5,.28,3,.85,4.42,1.73,6.62,4.07,11.91,9.79,15.45,16.43,1.32,2.47,2.39,5.08,3.21,7.78,.27,.91-.12,1.88-.93,2.38Z"/><path class="cls-29" d="M269.21,160.25l-20.07,12.37-12.71,7.84c-.24,.14-.53,.13-.76-.01-.24-.16-.48-.31-.73-.46-.42-.26-.84-.5-1.27-.68,0,0-.03-.03-.05-.04-.17-.1-.05-.22,.01-.26,.02-.01,.03-.02,.03-.02l15.65-9.65,16.96-10.46c.97,.3,1.92,.73,2.84,1.3,.03,.02,.08,.04,.11,.06Z"/><path class="cls-29" d="M273.76,163.5c.21,.17,.18,.5-.05,.64l-24.71,15.23-7.64,4.71c-.29,.18-.65,.15-.9-.07-.3-.26-.61-.52-.92-.77-.42-.34-.39-.98,.07-1.26l9.54-5.88,22.31-13.76c.27-.17,.62-.16,.87,.03,.49,.36,.97,.74,1.44,1.13Z"/><path class="cls-29" d="M277.58,168.43l-31.99,19.71c-.36,.22-.82,.15-1.1-.17-.28-.32-.57-.63-.87-.94-.27-.29-.22-.75,.12-.96l2.89-1.77,29.22-18.01c.36-.22,.83-.18,1.14,.12,.26,.25,.51,.51,.76,.77,.35,.37,.26,.98-.17,1.25Z"/><path class="cls-29" d="M281.41,172.73l-32.28,19.91c-.4,.25-.92,.13-1.19-.26-.21-.31-.43-.61-.65-.92-.24-.33-.15-.8,.2-1.02l32.19-19.84c.38-.24,.89-.15,1.16,.21,.26,.34,.51,.69,.76,1.04,.2,.29,.11,.69-.19,.88Z"/><path class="cls-29" d="M284.55,177.46s-.01,.01-.02,.02l-32.6,20.09c-.39,.24-.9,.09-1.12-.32-.13-.27-.28-.55-.42-.82-.06-.12-.13-.24-.19-.36-.2-.39,.03-.64,.13-.71,.03-.02,.04-.03,.04-.03l32.89-20.26c.16-.11,.39-.05,.48,.11,.33,.55,.66,1.12,.95,1.69,0,0,.01,.01,.01,.04,.03,.11,.1,.38-.15,.55Z"/><path class="cls-29" d="M286.92,182.66l-33.28,20.52c-.16,.1-.36,.02-.42-.15-.22-.67-.46-1.34-.72-1.99-.06-.16,0-.35,.14-.44l33.17-20.46c.17-.11,.4-.03,.48,.15,.27,.65,.53,1.31,.77,1.97,.05,.15,0,.32-.14,.4Z"/><path class="cls-29" d="M289.32,191.93c.04,.36-.14,.72-.45,.91l-80.57,49.61c-.22,.14-.51-.02-.51-.28v-2.26c0-.22,.11-.41,.29-.52l80.36-49.48c.26-.16,.6,0,.65,.29,.09,.57,.17,1.15,.23,1.73Z"/><path class="cls-29" d="M289.7,199.88c.02,.28-.11,.54-.35,.69l-81.04,49.91c-.05,.04-.12,.05-.18,.05-.17-.01-.32-.14-.32-.33v-2.26c0-.11,.03-.22,.09-.3,.04-.09,.12-.16,.2-.22l80.92-49.83c.26-.16,.59,.02,.6,.33,.01,.66,.04,1.31,.09,1.96Z"/><path class="cls-29" d="M290.81,207.05c.09,.34-.05,.69-.35,.87l-80.35,49.47c-.25,.15-.57,.03-.65-.24-.17-.59-.33-1.2-.47-1.79-.06-.25,.05-.51,.27-.65l80.5-49.57c.27-.17,.62-.01,.68,.3,.11,.54,.23,1.07,.36,1.6Z"/><path class="cls-29" d="M293.01,213.53c.16,.38,.03,.82-.32,1.04l-80.07,49.31c-.22,.13-.5,.05-.6-.17-.27-.52-.51-1.06-.74-1.58-.12-.28-.01-.6,.25-.76l80.2-49.39c.28-.17,.63-.05,.75,.25,.17,.44,.35,.87,.54,1.3Z"/><path class="cls-29" d="M296.33,219.7c.16,.25,.09,.58-.16,.74l-80.05,49.3c-.2,.12-.46,.06-.6-.13-.34-.48-.69-.98-1.02-1.48-.15-.23-.08-.54,.15-.68l80.05-49.3c.27-.17,.63-.08,.79,.2,.27,.45,.55,.9,.85,1.35Z"/><path class="cls-29" d="M300.53,225.11c.21,.23,.16,.59-.1,.75l-79.8,49.15c-.19,.11-.43,.09-.59-.06-.43-.43-.86-.87-1.28-1.32-.2-.23-.15-.58,.11-.74l79.73-49.1c.29-.18,.67-.12,.89,.14,.34,.4,.69,.8,1.05,1.19Z"/><path class="cls-29" d="M272.29,250.33c.3,.23,.28,.68-.04,.88l-46.06,28.38c-.17,.11-.39,.1-.56-.01-.55-.39-1.09-.78-1.63-1.18-.23-.17-.2-.53,.04-.68l46.13-28.43c.28-.17,.64-.15,.9,.07,.4,.33,.8,.66,1.21,.97Z"/></g></g><g><path class="cls-12" d="M235.13,155.47l10.5,6.25,32.11,2.96,12.88-7.93-28.53-3.39-26.88,1.46c-.34,.05-.4,.52-.08,.65Z"/><g><g><path class="cls-18" d="M243.65,138.11l1.97,2.01,7.51,7.62-17.74,7.69c-.3,.14-.6-.07-.64-.34-.07-.14-.07-.25,0-.37l8.9-16.61Z"/><path class="cls-24" d="M243.65,138.11l1.97,2.01-1.42,3.87-9.45,11.11c-.07-.14-.07-.25,0-.37l8.9-16.61Z"/></g><g><path class="cls-32" d="M344.07,50.23l2.71,2.89,6.98,7.41-98.86,86.02s0,0,0,0h0c-.24,.26-.48,.48-.76,.66-.76,.53-1.66,.83-2.62,.89-1.88,.12-4-.62-5.7-2.19-.64-.59-1.17-1.25-1.57-1.93,0,0,0,0,0,0-1.13-1.9-1.37-4.04-.63-5.73,.2-.49,.49-.94,.85-1.33,.06-.08,.13-.14,.2-.2l.28-.24s.07-.06,.1-.09c.03-.02,.06-.04,.09-.06l98.96-86.09Z"/><path class="cls-30" d="M344.07,50.23l2.71,2.89-2.87,4.27-99.68,86.61s0,0-.01,0c0,0,0,0,0,0-1.13-1.9-1.37-4.04-.63-5.73,.2-.49,.49-.94,.85-1.33,.06-.08,.13-.14,.2-.2l.28-.24s.07-.06,.1-.09c.03-.02,.06-.04,.09-.06l98.96-86.09Z"/><path class="cls-21" d="M353.15,50.87c2.88,2.67,3.5,6.69,1.37,9h0c-.23,.26-.49,.48-.76,.66-.75,.53-1.66,.83-2.63,.89-1.88,.12-4-.62-5.7-2.19-2.39-2.21-3.22-5.36-2.22-7.68,.2-.49,.49-.94,.85-1.33,.06-.07,.13-.14,.2-.2l.29-.24s.07-.06,.1-.09c2.23-1.71,5.86-1.26,8.5,1.17Z"/><path class="cls-22" d="M327.26,64.86l8.41-7.29s-.08,.06-.08,.09c-.34,.38-.59,.79-.78,1.24-.74,1.74-.47,3.9,.69,5.8,.39,.69,.9,1.33,1.52,1.9,1.71,1.56,3.82,2.29,5.72,2.17,.72-.03,1.41-.22,2.01-.52,.2-.08,.37-.17,.52-.3l-7.98,7s-.35,.29-.53,.43c-.76,.51-1.65,.83-2.61,.88-1.89,.13-4-.61-5.71-2.19-.62-.56-1.16-1.22-1.55-1.9-1.15-1.9-1.4-4.05-.67-5.77,.2-.48,.49-.93,.87-1.33,.05-.07,.13-.13,.18-.2Z"/><path class="cls-5" d="M335.88,57.38c-.08,.06-.14,.1-.19,.17,.04-.04,.08-.06,.08-.09l.11-.08Z"/><path class="cls-25" d="M344.18,50.16c-.38,.4-.65,.82-.84,1.34-.75,1.71-.5,3.84,.65,5.73,.41,.7,.93,1.34,1.57,1.94,1.68,1.57,3.79,2.31,5.68,2.18,.96-.07,1.88-.36,2.64-.89l-8.08,7.05s-.33,.33-.53,.43c-.15,.12-.32,.21-.52,.3-.6,.36-1.34,.56-2.1,.61-1.89,.13-3.99-.64-5.71-2.19-.62-.59-1.16-1.21-1.56-1.88-1.15-1.92-1.39-4.08-.66-5.79,.21-.5,.5-.96,.87-1.33,0-.03,.05-.07,.08-.09v-.03c.05-.04,.08-.06,.09-.09l.11-.08,8.3-7.21Z"/></g></g></g></g></g></g></svg>